<svg xmlns="http://www.w3.org/2000/svg" xmlns:xlink="http://www.w3.org/1999/xlink" width="1366" zoomAndPan="magnify" viewBox="0 0 1024.5 576" height="768" preserveAspectRatio="xMidYMid meet" version="1.0"><defs><g/><clipPath id="2fb068357e"><path d="M 0 0.140625 L 1024 0.140625 L 1024 575.859375 L 0 575.859375 Z M 0 0.140625 " clip-rule="nonzero"/></clipPath><clipPath id="321d0726aa"><path d="M 475.742188 436.773438 L 617.421875 436.773438 L 617.421875 467.507812 L 475.742188 467.507812 Z M 475.742188 436.773438 " clip-rule="nonzero"/></clipPath><clipPath id="d264578bc8"><path d="M 674 170.835938 L 737.714844 170.835938 L 737.714844 204.570312 L 674 204.570312 Z M 674 170.835938 " clip-rule="nonzero"/></clipPath><clipPath id="caad3dff23"><path d="M 318.894531 328 L 354.878906 328 L 354.878906 368.445312 L 318.894531 368.445312 Z M 318.894531 328 " clip-rule="nonzero"/></clipPath><clipPath id="f1aecde700"><path d="M 475.742188 27.527344 L 552.953125 27.527344 L 552.953125 118.984375 L 475.742188 118.984375 Z M 475.742188 27.527344 " clip-rule="nonzero"/></clipPath></defs><g clip-path="url(#2fb068357e)"><path fill="#ffffff" d="M 0 0.140625 L 1024 0.140625 L 1024 575.859375 L 0 575.859375 Z M 0 0.140625 " fill-opacity="1" fill-rule="nonzero"/><path fill="#fafafa" d="M 0 0.140625 L 1024 0.140625 L 1024 575.859375 L 0 575.859375 Z M 0 0.140625 " fill-opacity="1" fill-rule="nonzero"/></g><g clip-path="url(#321d0726aa)"><path fill="#ff5055" d="M 575.179688 449.367188 C 575.296875 449.390625 575.417969 449.398438 575.550781 449.410156 C 582.242188 449.417969 588.945312 449.398438 595.636719 449.429688 C 602.308594 449.460938 608.980469 449.539062 615.644531 449.628906 C 616.078125 449.628906 616.511719 449.75 616.882812 449.964844 C 617.4375 450.316406 617.597656 450.910156 617.367188 451.535156 C 617.125 452.199219 616.589844 452.535156 615.90625 452.460938 C 609.070312 451.6875 602.21875 452.363281 595.375 452.28125 C 590.902344 452.230469 586.425781 452.140625 581.960938 452.128906 C 575.046875 452.121094 568.171875 452.652344 561.300781 453.300781 C 556.332031 453.761719 551.351562 454.054688 546.394531 454.609375 C 543.894531 454.890625 541.425781 455.527344 538.957031 456.101562 C 527.457031 458.761719 515.976562 461.535156 504.445312 464.101562 C 499.253906 465.261719 493.984375 466.070312 488.734375 466.925781 C 486.386719 467.308594 483.988281 467.417969 481.636719 466.875 C 480.890625 466.695312 480.1875 466.351562 479.59375 465.867188 C 478.613281 465.0625 478.683594 463.863281 479.664062 463.066406 C 480.125 462.703125 480.628906 462.378906 481.164062 462.109375 C 485.839844 459.539062 490.902344 458.097656 496.121094 457.191406 C 506.332031 455.414062 516.582031 453.832031 526.910156 452.917969 C 531.898438 452.472656 536.917969 452.242188 541.9375 452.128906 C 546.011719 452.039062 549.929688 451.140625 553.902344 450.46875 C 563.476562 448.835938 573.0625 447.191406 582.65625 445.71875 C 591.574219 444.347656 600.445312 442.726562 609.203125 440.558594 C 609.917969 440.378906 610.605469 440.117188 611.371094 439.875 C 611.089844 439.140625 610.5625 438.96875 610.03125 438.96875 C 608.355469 438.988281 606.664062 438.988281 605 439.160156 C 601.070312 439.5625 597.148438 440.015625 593.230469 440.53125 C 590.417969 440.902344 587.625 441.4375 584.8125 441.828125 C 578.492188 442.714844 572.175781 443.542969 565.855469 444.421875 C 561.832031 444.972656 557.832031 445.621094 553.8125 446.144531 C 550.382812 446.597656 546.949219 446.980469 543.5 447.3125 C 539.308594 447.707031 535.105469 448.039062 530.902344 448.320312 C 525.824219 448.652344 520.742188 448.984375 515.652344 449.167969 C 510.433594 449.359375 505.230469 449.730469 500.042969 450.367188 C 495.273438 450.949219 490.488281 451.414062 485.71875 452 C 483.722656 452.242188 481.75 452.664062 479.753906 452.957031 C 478.855469 453.066406 477.960938 453.117188 477.050781 453.085938 C 476.546875 453.085938 475.902344 453.039062 475.824219 452.402344 C 475.742188 451.765625 476.347656 451.546875 476.839844 451.425781 C 478.828125 450.949219 480.800781 450.367188 482.808594 450.085938 C 489.386719 449.1875 495.96875 448.238281 502.570312 447.625 C 508.738281 447.039062 514.949219 446.878906 521.144531 446.484375 C 528.707031 446.011719 536.273438 445.640625 543.8125 444.945312 C 551.140625 444.269531 558.449219 443.300781 565.753906 442.363281 C 573.160156 441.417969 580.550781 440.339844 587.949219 439.339844 C 594.09375 438.515625 600.242188 437.707031 606.390625 436.960938 C 607.679688 436.800781 609.023438 436.910156 610.332031 437.003906 C 610.875 437.042969 611.441406 437.285156 611.914062 437.566406 C 613.800781 438.714844 613.820312 440.914062 611.84375 441.859375 C 610.351562 442.574219 608.699219 443.019531 607.085938 443.441406 C 598.296875 445.699219 589.359375 447.179688 580.378906 448.453125 C 578.644531 448.691406 576.921875 448.984375 575.1875 449.257812 Z M 482.261719 464.183594 L 482.332031 464.496094 C 483.3125 464.496094 484.300781 464.585938 485.257812 464.476562 C 488.792969 464.0625 492.351562 463.71875 495.847656 463.09375 C 507.378906 461.058594 518.777344 458.429688 530.148438 455.648438 C 530.722656 455.507812 531.296875 455.367188 531.878906 455.214844 L 531.839844 455.011719 C 528.707031 455.292969 525.5625 455.464844 522.445312 455.890625 C 514.113281 457.007812 505.777344 458.1875 497.460938 459.425781 C 492.460938 460.183594 487.613281 461.523438 483.058594 463.769531 C 482.777344 463.910156 482.523438 464.054688 482.261719 464.183594 Z M 482.261719 464.183594 " fill-opacity="1" fill-rule="nonzero"/></g><g clip-path="url(#d264578bc8)"><path fill="#ff5055" d="M 735.230469 189.492188 C 734.339844 187.773438 733.105469 186.167969 731.609375 184.9375 C 730.0625 183.660156 728.226562 182.644531 726.226562 182.308594 C 725.65625 182.210938 725.078125 182.164062 724.496094 182.164062 C 723.300781 179.023438 721.0625 176.355469 718.367188 174.363281 C 715.140625 171.984375 711.1875 170.839844 707.195312 170.886719 C 702.878906 170.9375 698.648438 172.292969 694.898438 174.386719 C 691.105469 176.503906 687.8125 179.429688 684.972656 182.707031 C 682.1875 185.917969 679.789062 189.445312 677.507812 193.027344 C 677.378906 191.4375 677.285156 189.84375 677.234375 188.246094 C 677.207031 187.410156 677.1875 186.574219 677.183594 185.734375 C 677.179688 185.324219 677.007812 184.902344 676.71875 184.609375 C 676.441406 184.335938 675.988281 184.125 675.59375 184.144531 C 675.179688 184.164062 674.753906 184.296875 674.46875 184.609375 C 674.183594 184.921875 673.996094 185.304688 674 185.734375 C 674.023438 188.6875 674.175781 191.640625 674.460938 194.578125 C 674.535156 195.335938 674.621094 196.09375 674.710938 196.851562 C 674.679688 196.917969 674.652344 196.992188 674.632812 197.066406 C 674.527344 197.445312 674.574219 197.953125 674.792969 198.289062 C 675.011719 198.628906 675.335938 198.929688 675.742188 199.019531 C 676.152344 199.113281 676.605469 199.09375 676.96875 198.859375 C 678.664062 197.785156 680.425781 196.816406 682.246094 195.964844 C 682.707031 195.75 683.171875 195.542969 683.640625 195.34375 C 685.53125 194.554688 687.472656 193.890625 689.453125 193.359375 C 689.839844 193.253906 690.203125 192.972656 690.40625 192.628906 C 690.605469 192.285156 690.6875 191.785156 690.566406 191.402344 C 690.441406 191.015625 690.203125 190.644531 689.832031 190.449219 C 689.453125 190.25 689.03125 190.175781 688.609375 190.289062 C 686.144531 190.953125 683.726562 191.820312 681.394531 192.867188 C 682.582031 191.046875 683.8125 189.257812 685.128906 187.523438 C 685.203125 187.429688 685.277344 187.335938 685.347656 187.242188 C 685.070312 187.613281 685.351562 187.234375 685.410156 187.160156 C 685.578125 186.945312 685.75 186.730469 685.917969 186.519531 C 686.238281 186.121094 686.5625 185.730469 686.894531 185.339844 C 687.550781 184.566406 688.234375 183.808594 688.941406 183.078125 C 689.648438 182.34375 690.378906 181.636719 691.140625 180.957031 C 691.511719 180.628906 691.886719 180.304688 692.269531 179.992188 C 692.449219 179.84375 692.632812 179.699219 692.816406 179.554688 C 692.832031 179.542969 692.851562 179.527344 692.867188 179.515625 C 692.96875 179.4375 693.074219 179.359375 693.179688 179.28125 C 694.765625 178.109375 696.460938 177.082031 698.242188 176.238281 C 698.464844 176.132812 698.6875 176.03125 698.910156 175.933594 C 698.980469 175.902344 699.050781 175.871094 699.121094 175.84375 C 699.175781 175.820312 699.234375 175.792969 699.289062 175.769531 C 699.742188 175.589844 700.195312 175.417969 700.65625 175.261719 C 701.582031 174.945312 702.527344 174.679688 703.488281 174.476562 C 703.957031 174.378906 704.429688 174.296875 704.902344 174.226562 C 704.90625 174.226562 704.90625 174.226562 704.90625 174.226562 C 705.019531 174.210938 705.128906 174.199219 705.242188 174.1875 C 705.492188 174.160156 705.746094 174.136719 706.003906 174.117188 C 706.957031 174.050781 707.914062 174.050781 708.867188 174.121094 C 709.089844 174.136719 709.3125 174.15625 709.535156 174.183594 C 709.617188 174.191406 709.699219 174.203125 709.78125 174.210938 C 709.847656 174.222656 709.910156 174.230469 709.972656 174.242188 C 710.414062 174.3125 710.851562 174.394531 711.285156 174.5 C 711.695312 174.601562 712.101562 174.71875 712.5 174.851562 C 712.699219 174.917969 712.898438 174.988281 713.097656 175.0625 C 713.1875 175.097656 713.28125 175.132812 713.371094 175.171875 C 713.425781 175.191406 713.476562 175.210938 713.53125 175.234375 C 713.734375 175.316406 713.421875 175.175781 713.382812 175.171875 C 713.5625 175.191406 713.800781 175.355469 713.960938 175.433594 C 714.167969 175.53125 714.371094 175.632812 714.570312 175.738281 C 714.945312 175.933594 715.3125 176.144531 715.671875 176.371094 C 716.03125 176.597656 716.382812 176.835938 716.726562 177.085938 C 716.796875 177.136719 716.867188 177.191406 716.9375 177.242188 C 716.949219 177.253906 716.964844 177.265625 716.976562 177.277344 C 717.140625 177.40625 717.304688 177.542969 717.464844 177.679688 C 718.113281 178.242188 718.71875 178.851562 719.277344 179.503906 C 719.398438 179.648438 719.519531 179.796875 719.636719 179.941406 C 719.710938 180.039062 719.78125 180.136719 719.851562 180.234375 C 720.09375 180.574219 720.324219 180.921875 720.535156 181.277344 C 720.75 181.632812 720.945312 181.996094 721.128906 182.367188 C 721.175781 182.457031 721.214844 182.550781 721.257812 182.644531 C 719.15625 183.300781 717.273438 184.605469 716.0625 186.519531 C 715.007812 188.183594 714.515625 190.46875 715.285156 192.34375 C 715.796875 193.59375 716.675781 194.503906 717.953125 194.972656 C 718.972656 195.34375 720.226562 195.265625 721.226562 194.867188 C 724.910156 193.390625 725.785156 189.054688 725.308594 185.378906 C 725.34375 185.382812 725.375 185.382812 725.410156 185.382812 C 725.503906 185.398438 725.597656 185.414062 725.691406 185.433594 C 726.105469 185.519531 726.515625 185.640625 726.917969 185.78125 C 726.980469 185.804688 727.042969 185.832031 727.109375 185.855469 C 727.128906 185.859375 727.175781 185.878906 727.210938 185.894531 C 727.21875 185.894531 727.222656 185.898438 727.226562 185.902344 C 727.269531 185.917969 727.3125 185.9375 727.355469 185.953125 C 727.328125 185.941406 727.300781 185.933594 727.277344 185.925781 C 727.464844 186.011719 727.648438 186.097656 727.828125 186.195312 C 728.207031 186.394531 728.574219 186.617188 728.925781 186.863281 C 729.007812 186.921875 729.089844 186.976562 729.171875 187.039062 C 729.175781 187.042969 729.183594 187.046875 729.1875 187.050781 C 729.347656 187.195312 729.527344 187.324219 729.6875 187.464844 C 730.011719 187.753906 730.324219 188.058594 730.617188 188.378906 C 730.753906 188.527344 730.886719 188.679688 731.019531 188.835938 C 731.089844 188.921875 731.15625 189.007812 731.226562 189.089844 C 731.238281 189.109375 731.25 189.121094 731.253906 189.132812 C 731.777344 189.832031 732.234375 190.585938 732.617188 191.371094 C 732.710938 191.558594 732.796875 191.75 732.882812 191.941406 C 732.882812 191.945312 732.882812 191.945312 732.882812 191.945312 C 732.933594 192.070312 732.984375 192.195312 733.03125 192.324219 C 733.21875 192.820312 733.382812 193.324219 733.523438 193.839844 C 733.667969 194.367188 733.789062 194.902344 733.886719 195.441406 C 733.933594 195.683594 733.972656 195.929688 734.011719 196.175781 C 734.015625 196.210938 734.019531 196.246094 734.027344 196.28125 C 734.039062 196.421875 734.0625 196.5625 734.078125 196.699219 C 734.191406 197.765625 734.238281 198.832031 734.234375 199.902344 C 734.230469 200.957031 734.179688 202.007812 734.097656 203.058594 C 734.035156 203.890625 734.875 204.683594 735.6875 204.648438 C 736.605469 204.609375 737.210938 203.949219 737.28125 203.058594 C 737.632812 198.472656 737.378906 193.652344 735.230469 189.492188 Z M 722.234375 187.667969 C 722.226562 187.878906 722.210938 188.085938 722.1875 188.292969 C 722.183594 188.335938 722.179688 188.378906 722.175781 188.421875 C 722.175781 188.429688 722.175781 188.4375 722.171875 188.445312 C 722.160156 188.519531 722.148438 188.597656 722.132812 188.671875 C 722.050781 189.128906 721.9375 189.578125 721.78125 190.015625 C 721.753906 190.09375 721.714844 190.175781 721.6875 190.253906 C 721.675781 190.273438 721.667969 190.292969 721.660156 190.3125 C 721.550781 190.53125 721.433594 190.742188 721.296875 190.945312 C 721.257812 191.011719 721.203125 191.070312 721.160156 191.132812 C 721.140625 191.15625 721.121094 191.175781 721.101562 191.199219 C 721.03125 191.277344 720.957031 191.355469 720.878906 191.429688 C 720.839844 191.46875 720.796875 191.503906 720.757812 191.542969 C 720.707031 191.578125 720.628906 191.632812 720.601562 191.648438 C 720.507812 191.710938 720.410156 191.765625 720.308594 191.816406 C 720.296875 191.824219 720.277344 191.832031 720.253906 191.84375 C 720.191406 191.863281 720.066406 191.910156 720.023438 191.925781 C 719.929688 191.953125 719.832031 191.976562 719.738281 192 C 719.722656 192.003906 719.703125 192.003906 719.683594 192.007812 C 719.703125 192.007812 719.722656 192.007812 719.75 192.007812 C 719.726562 192.007812 719.703125 192.007812 719.679688 192.007812 C 719.554688 192.023438 719.40625 192.015625 719.546875 192.011719 C 719.421875 192.011719 719.300781 192.015625 719.175781 192.011719 C 719.078125 191.992188 718.980469 191.964844 718.886719 191.933594 C 718.804688 191.886719 718.71875 191.839844 718.640625 191.789062 C 718.636719 191.789062 718.636719 191.789062 718.636719 191.785156 C 718.574219 191.726562 718.515625 191.664062 718.457031 191.601562 C 718.398438 191.515625 718.34375 191.425781 718.292969 191.332031 C 718.285156 191.316406 718.277344 191.300781 718.269531 191.289062 C 718.253906 191.234375 718.234375 191.179688 718.21875 191.128906 C 718.191406 191.039062 718.167969 190.949219 718.148438 190.855469 C 718.132812 190.800781 718.125 190.71875 718.121094 190.652344 C 718.125 190.695312 718.125 190.753906 718.128906 190.839844 C 718.121094 190.648438 718.101562 190.457031 718.101562 190.265625 C 718.105469 190.152344 718.109375 190.042969 718.117188 189.933594 C 718.121094 189.914062 718.121094 189.898438 718.121094 189.882812 C 718.15625 189.714844 718.1875 189.546875 718.234375 189.378906 C 718.285156 189.195312 718.332031 188.929688 718.441406 188.773438 C 718.441406 188.777344 718.265625 189.164062 718.371094 188.941406 C 718.390625 188.90625 718.402344 188.867188 718.421875 188.832031 C 718.460938 188.753906 718.5 188.671875 718.539062 188.589844 C 718.636719 188.410156 718.738281 188.234375 718.851562 188.0625 C 718.898438 187.984375 718.949219 187.910156 719.003906 187.839844 C 719.03125 187.796875 719.0625 187.757812 719.09375 187.714844 C 719.1875 187.574219 718.945312 187.914062 718.960938 187.886719 C 719.050781 187.71875 719.230469 187.558594 719.359375 187.421875 C 719.492188 187.28125 719.628906 187.148438 719.773438 187.019531 C 719.839844 186.957031 719.90625 186.898438 719.976562 186.839844 C 720.015625 186.808594 720.054688 186.777344 720.09375 186.742188 C 720.257812 186.605469 719.976562 186.828125 719.953125 186.847656 C 720.222656 186.589844 720.605469 186.390625 720.929688 186.210938 C 721.101562 186.117188 721.273438 186.027344 721.453125 185.945312 C 721.535156 185.90625 721.621094 185.871094 721.703125 185.832031 C 721.210938 186.058594 721.605469 185.875 721.722656 185.832031 C 721.863281 185.777344 722.007812 185.730469 722.148438 185.6875 C 722.152344 185.742188 722.164062 185.800781 722.175781 185.851562 C 722.199219 186.042969 722.214844 186.238281 722.226562 186.429688 C 722.25 186.84375 722.253906 187.257812 722.234375 187.667969 Z M 732.820312 191.785156 C 732.835938 191.816406 732.851562 191.851562 732.863281 191.886719 C 732.839844 191.832031 732.816406 191.773438 732.820312 191.785156 Z M 732.820312 191.785156 " fill-opacity="1" fill-rule="nonzero"/></g><g clip-path="url(#caad3dff23)"><path fill="#ff5055" d="M 318.613281 334.304688 C 319.867188 332.847656 321.503906 332.179688 323.371094 331.796875 C 327.839844 330.871094 332.285156 329.78125 336.753906 328.839844 C 338.238281 328.542969 339.738281 328.351562 341.238281 328.269531 C 342.613281 328.1875 343.554688 328.894531 343.773438 329.933594 C 343.992188 331.007812 343.363281 332.125 341.972656 332.480469 C 339.683594 333.066406 337.339844 333.433594 335.023438 333.925781 C 331.507812 334.660156 328.019531 335.492188 324.503906 336.132812 C 322.457031 336.515625 320.425781 336.226562 318.628906 335.042969 Z M 347.097656 368.445312 C 348.609375 367.53125 349.824219 366.320312 350.382812 364.644531 C 351.828125 360.308594 353.203125 355.949219 354.523438 351.558594 C 354.785156 350.699219 354.851562 349.789062 354.730469 348.902344 C 354.648438 348.316406 354.144531 347.5 353.667969 347.363281 C 353.109375 347.210938 352.316406 347.609375 351.730469 347.933594 C 351.390625 348.125 351.171875 348.628906 350.996094 349.039062 C 348.976562 353.917969 347.003906 358.808594 346.144531 364.042969 C 345.914062 365.445312 346.429688 366.972656 346.605469 368.445312 Z M 330.90625 356.507812 C 334.847656 354.011719 338.839844 351.628906 342.042969 348.140625 C 342.804688 347.308594 343.800781 346.679688 344.632812 345.902344 C 345.367188 345.207031 346.128906 344.515625 346.703125 343.683594 C 347.21875 342.945312 347.246094 342.035156 346.511719 341.324219 C 345.816406 340.65625 344.972656 340.726562 344.234375 341.175781 C 342.667969 342.128906 341.046875 343.042969 339.644531 344.199219 C 336.847656 346.53125 334.179688 348.996094 331.480469 351.421875 C 330.417969 352.378906 329.355469 353.34375 328.332031 354.339844 C 327.542969 355.117188 326.902344 356.003906 327.023438 357.285156 C 328.480469 357.652344 329.75 357.242188 330.90625 356.507812 Z M 330.90625 356.507812 " fill-opacity="1" fill-rule="nonzero"/></g><g clip-path="url(#f1aecde700)"><path fill="#000000" d="M 552.113281 40.859375 C 550.972656 39.5625 549.074219 39.902344 547.550781 39.558594 C 536.511719 37.742188 526.140625 33.230469 516.230469 28.179688 C 515.761719 27.957031 515.269531 27.761719 514.773438 27.589844 L 514.058594 27.589844 C 512.339844 28.105469 510.816406 29.085938 509.195312 29.835938 C 500.503906 34.101562 491.390625 37.777344 481.8125 39.457031 C 480.433594 39.734375 479 39.714844 477.648438 40.117188 C 476.578125 40.589844 475.792969 41.707031 475.855469 42.894531 C 475.742188 49.5 475.984375 56.105469 476.5 62.6875 C 477.246094 71.0625 478.453125 79.488281 481.269531 87.445312 C 482.636719 91.140625 484.375 94.769531 486.996094 97.746094 C 494.144531 106.203125 503.027344 113.136719 512.746094 118.414062 C 513.160156 118.621094 513.59375 118.785156 514.035156 118.917969 L 514.65625 118.917969 C 516.390625 118.429688 517.824219 117.277344 519.40625 116.464844 C 526.9375 112.007812 533.828125 106.464844 539.757812 100.03125 C 541.550781 98.007812 543.394531 95.976562 544.675781 93.578125 C 547.660156 88.28125 549.234375 82.335938 550.410156 76.414062 C 552.4375 65.617188 552.960938 54.597656 552.902344 43.636719 C 552.933594 42.65625 552.859375 41.582031 552.113281 40.859375 Z M 547.921875 73.988281 C 546.710938 80.636719 545.132812 87.40625 541.554688 93.230469 C 538.378906 97.824219 534.285156 101.699219 530.09375 105.355469 C 525.261719 109.480469 519.949219 113.011719 514.371094 116.054688 C 504.589844 110.746094 495.628906 103.769531 488.558594 95.140625 C 484.914062 90.484375 483.191406 84.6875 481.824219 79.019531 C 479.191406 67.136719 478.566406 54.902344 478.738281 42.761719 C 491.359375 41.339844 503.152344 36.148438 514.375 30.460938 C 525.59375 36.152344 537.398438 41.332031 550.023438 42.753906 C 550.183594 53.195312 549.683594 63.679688 547.921875 73.988281 Z M 547.921875 73.988281 " fill-opacity="1" fill-rule="nonzero"/></g><path fill="#000000" d="M 484.40625 47.71875 C 484.617188 58.953125 485.265625 70.308594 488.234375 81.195312 C 489.398438 85.210938 490.894531 89.285156 493.757812 92.421875 C 499.523438 99.3125 506.671875 104.929688 514.375 109.507812 C 522.570312 104.636719 530.140625 98.5625 536.09375 91.082031 C 538.910156 87.214844 540.246094 82.519531 541.351562 77.925781 C 543.570312 68.023438 544.167969 57.839844 544.332031 47.722656 C 533.847656 45.699219 523.890625 41.617188 514.371094 36.867188 C 504.847656 41.613281 494.898438 45.703125 484.40625 47.71875 Z M 484.40625 47.71875 " fill-opacity="1" fill-rule="nonzero"/><g fill="#000000" fill-opacity="1"><g transform="translate(339.296407, 264.61567)"><g><path d="M 5.359375 -46.875 L 20.765625 -46.875 C 24.285156 -46.875 27.539062 -46.269531 30.53125 -45.0625 C 33.53125 -43.863281 36.125 -42.210938 38.3125 -40.109375 C 40.5 -38.015625 42.191406 -35.535156 43.390625 -32.671875 C 44.597656 -29.816406 45.203125 -26.738281 45.203125 -23.4375 C 45.203125 -20.132812 44.597656 -17.050781 43.390625 -14.1875 C 42.191406 -11.332031 40.5 -8.851562 38.3125 -6.75 C 36.125 -4.65625 33.53125 -3.003906 30.53125 -1.796875 C 27.539062 -0.597656 24.285156 0 20.765625 0 L 5.359375 0 Z M 20.765625 -5.6875 C 23.523438 -5.6875 26.03125 -6.117188 28.28125 -6.984375 C 30.539062 -7.859375 32.472656 -9.085938 34.078125 -10.671875 C 35.691406 -12.265625 36.941406 -14.144531 37.828125 -16.3125 C 38.722656 -18.476562 39.171875 -20.851562 39.171875 -23.4375 C 39.171875 -26.03125 38.722656 -28.40625 37.828125 -30.5625 C 36.941406 -32.726562 35.691406 -34.601562 34.078125 -36.1875 C 32.472656 -37.78125 30.539062 -39.007812 28.28125 -39.875 C 26.03125 -40.75 23.523438 -41.1875 20.765625 -41.1875 L 11.390625 -41.1875 L 11.390625 -5.6875 Z M 20.765625 -5.6875 "/></g></g></g><g fill="#000000" fill-opacity="1"><g transform="translate(385.501005, 264.61567)"><g><path d="M 23.4375 1.34375 C 20.664062 1.34375 18.148438 0.894531 15.890625 0 C 13.640625 -0.894531 11.710938 -2.164062 10.109375 -3.8125 C 8.503906 -5.46875 7.253906 -7.46875 6.359375 -9.8125 C 5.460938 -12.15625 5.015625 -14.800781 5.015625 -17.75 L 5.015625 -46.875 L 11.046875 -46.875 L 11.046875 -17.75 C 11.046875 -15.644531 11.347656 -13.765625 11.953125 -12.109375 C 12.554688 -10.460938 13.40625 -9.054688 14.5 -7.890625 C 15.59375 -6.734375 16.894531 -5.851562 18.40625 -5.25 C 19.925781 -4.65625 21.601562 -4.359375 23.4375 -4.359375 C 25.269531 -4.359375 26.941406 -4.65625 28.453125 -5.25 C 29.972656 -5.851562 31.28125 -6.734375 32.375 -7.890625 C 33.46875 -9.054688 34.316406 -10.460938 34.921875 -12.109375 C 35.523438 -13.765625 35.828125 -15.644531 35.828125 -17.75 L 35.828125 -46.875 L 41.859375 -46.875 L 41.859375 -17.75 C 41.859375 -14.800781 41.410156 -12.15625 40.515625 -9.8125 C 39.617188 -7.46875 38.367188 -5.46875 36.765625 -3.8125 C 35.160156 -2.164062 33.226562 -0.894531 30.96875 0 C 28.71875 0.894531 26.207031 1.34375 23.4375 1.34375 Z M 23.4375 1.34375 "/></g></g></g><g fill="#000000" fill-opacity="1"><g transform="translate(430.366337, 264.61567)"><g><path d="M 5.359375 -46.875 L 15.0625 -46.875 L 29.125 -16.734375 L 32.140625 -16.734375 L 46.203125 -46.875 L 55.921875 -46.875 L 55.921875 0 L 49.890625 0 L 49.890625 -40.1875 L 49.953125 -40.84375 L 49.828125 -40.84375 L 36.15625 -11.390625 L 25.109375 -11.390625 L 11.453125 -40.84375 L 11.3125 -40.84375 L 11.390625 -40.1875 L 11.390625 0 L 5.359375 0 Z M 5.359375 -46.875 "/></g></g></g><g fill="#000000" fill-opacity="1"><g transform="translate(489.628794, 264.61567)"><g><path d="M 5.359375 -46.875 L 27.796875 -46.875 C 29.890625 -46.875 31.785156 -46.5625 33.484375 -45.9375 C 35.179688 -45.3125 36.617188 -44.453125 37.796875 -43.359375 C 38.984375 -42.265625 39.898438 -40.976562 40.546875 -39.5 C 41.191406 -38.03125 41.515625 -36.472656 41.515625 -34.828125 C 41.515625 -32.816406 41.164062 -31.160156 40.46875 -29.859375 C 39.78125 -28.566406 39.015625 -27.539062 38.171875 -26.78125 C 37.191406 -25.894531 36.078125 -25.226562 34.828125 -24.78125 L 34.828125 -24.4375 C 36.429688 -24.082031 37.878906 -23.457031 39.171875 -22.5625 C 40.242188 -21.8125 41.238281 -20.695312 42.15625 -19.21875 C 43.070312 -17.75 43.53125 -15.804688 43.53125 -13.390625 C 43.53125 -11.472656 43.179688 -9.695312 42.484375 -8.0625 C 41.796875 -6.4375 40.769531 -5.019531 39.40625 -3.8125 C 38.050781 -2.613281 36.367188 -1.675781 34.359375 -1 C 32.347656 -0.332031 30.046875 0 27.453125 0 L 5.359375 0 Z M 27.453125 -5.6875 C 30.804688 -5.6875 33.316406 -6.421875 34.984375 -7.890625 C 36.660156 -9.367188 37.5 -11.203125 37.5 -13.390625 C 37.5 -15.753906 36.660156 -17.6875 34.984375 -19.1875 C 33.316406 -20.6875 30.804688 -21.4375 27.453125 -21.4375 L 11.390625 -21.4375 L 11.390625 -5.6875 Z M 27.453125 -27.125 C 30.003906 -27.125 31.984375 -27.789062 33.390625 -29.125 C 34.796875 -30.46875 35.5 -32.144531 35.5 -34.15625 C 35.5 -36.164062 34.796875 -37.835938 33.390625 -39.171875 C 31.984375 -40.515625 30.003906 -41.1875 27.453125 -41.1875 L 11.390625 -41.1875 L 11.390625 -27.125 Z M 27.453125 -27.125 "/></g></g></g><g fill="#000000" fill-opacity="1"><g transform="translate(534.494126, 264.61567)"><g/></g></g><g fill="#000000" fill-opacity="1"><g transform="translate(551.234864, 264.61567)"><g><path d="M 13.390625 -46.875 L 31.8125 -46.875 L 43.859375 0 L 37.84375 0 L 34.15625 -13.734375 L 11.046875 -13.734375 L 7.359375 0 L 1.34375 0 Z M 32.8125 -19.421875 L 27.125 -41.1875 L 18.078125 -41.1875 L 12.390625 -19.421875 Z M 32.8125 -19.421875 "/></g></g></g><g fill="#000000" fill-opacity="1"><g transform="translate(594.426125, 264.61567)"><g><path d="M 5.359375 -46.875 L 14.0625 -46.875 L 37.09375 -7.359375 L 37.234375 -7.359375 L 37.171875 -8.03125 L 37.171875 -46.875 L 43.1875 -46.875 L 43.1875 0 L 34.484375 0 L 11.453125 -39.515625 L 11.3125 -39.515625 L 11.390625 -38.84375 L 11.390625 -0.0625 L 5.359375 0 Z M 5.359375 -46.875 "/></g></g></g><g fill="#000000" fill-opacity="1"><g transform="translate(640.965528, 264.61567)"><g><path d="M 5.359375 -46.875 L 20.765625 -46.875 C 24.285156 -46.875 27.539062 -46.269531 30.53125 -45.0625 C 33.53125 -43.863281 36.125 -42.210938 38.3125 -40.109375 C 40.5 -38.015625 42.191406 -35.535156 43.390625 -32.671875 C 44.597656 -29.816406 45.203125 -26.738281 45.203125 -23.4375 C 45.203125 -20.132812 44.597656 -17.050781 43.390625 -14.1875 C 42.191406 -11.332031 40.5 -8.851562 38.3125 -6.75 C 36.125 -4.65625 33.53125 -3.003906 30.53125 -1.796875 C 27.539062 -0.597656 24.285156 0 20.765625 0 L 5.359375 0 Z M 20.765625 -5.6875 C 23.523438 -5.6875 26.03125 -6.117188 28.28125 -6.984375 C 30.539062 -7.859375 32.472656 -9.085938 34.078125 -10.671875 C 35.691406 -12.265625 36.941406 -14.144531 37.828125 -16.3125 C 38.722656 -18.476562 39.171875 -20.851562 39.171875 -23.4375 C 39.171875 -26.03125 38.722656 -28.40625 37.828125 -30.5625 C 36.941406 -32.726562 35.691406 -34.601562 34.078125 -36.1875 C 32.472656 -37.78125 30.539062 -39.007812 28.28125 -39.875 C 26.03125 -40.75 23.523438 -41.1875 20.765625 -41.1875 L 11.390625 -41.1875 L 11.390625 -5.6875 Z M 20.765625 -5.6875 "/></g></g></g><g fill="#000000" fill-opacity="1"><g transform="translate(406.095838, 331.333106)"><g><path d="M 27.453125 1.34375 C 23.929688 1.34375 20.671875 0.726562 17.671875 -0.5 C 14.679688 -1.726562 12.101562 -3.445312 9.9375 -5.65625 C 7.78125 -7.863281 6.085938 -10.472656 4.859375 -13.484375 C 3.628906 -16.503906 3.015625 -19.820312 3.015625 -23.4375 C 3.015625 -27.050781 3.628906 -30.363281 4.859375 -33.375 C 6.085938 -36.394531 7.78125 -39.007812 9.9375 -41.21875 C 12.101562 -43.425781 14.679688 -45.144531 17.671875 -46.375 C 20.671875 -47.601562 23.929688 -48.21875 27.453125 -48.21875 C 29.816406 -48.21875 31.957031 -47.972656 33.875 -47.484375 C 35.800781 -46.992188 37.535156 -46.34375 39.078125 -45.53125 C 40.617188 -44.726562 41.96875 -43.8125 43.125 -42.78125 C 44.289062 -41.757812 45.296875 -40.710938 46.140625 -39.640625 C 48.148438 -37.140625 49.625 -34.304688 50.5625 -31.140625 L 44.53125 -31.140625 C 43.6875 -33.234375 42.503906 -35.128906 40.984375 -36.828125 C 40.316406 -37.546875 39.554688 -38.238281 38.703125 -38.90625 C 37.859375 -39.570312 36.878906 -40.171875 35.765625 -40.703125 C 34.648438 -41.242188 33.398438 -41.679688 32.015625 -42.015625 C 30.628906 -42.359375 29.109375 -42.53125 27.453125 -42.53125 C 24.773438 -42.53125 22.304688 -42.070312 20.046875 -41.15625 C 17.796875 -40.238281 15.851562 -38.941406 14.21875 -37.265625 C 12.59375 -35.585938 11.320312 -33.578125 10.40625 -31.234375 C 9.5 -28.890625 9.046875 -26.289062 9.046875 -23.4375 C 9.046875 -20.582031 9.5 -17.984375 10.40625 -15.640625 C 11.320312 -13.296875 12.59375 -11.285156 14.21875 -9.609375 C 15.851562 -7.929688 17.796875 -6.632812 20.046875 -5.71875 C 22.304688 -4.8125 24.773438 -4.359375 27.453125 -4.359375 C 29.148438 -4.359375 30.710938 -4.535156 32.140625 -4.890625 C 33.566406 -5.242188 34.847656 -5.710938 35.984375 -6.296875 C 37.128906 -6.878906 38.132812 -7.535156 39 -8.265625 C 39.875 -9.003906 40.644531 -9.753906 41.3125 -10.515625 C 42.832031 -12.296875 44.019531 -14.367188 44.875 -16.734375 L 50.890625 -16.734375 C 49.816406 -13.347656 48.253906 -10.335938 46.203125 -7.703125 C 45.316406 -6.535156 44.28125 -5.414062 43.09375 -4.34375 C 41.90625 -3.28125 40.539062 -2.320312 39 -1.46875 C 37.46875 -0.625 35.738281 0.0507812 33.8125 0.5625 C 31.894531 1.082031 29.773438 1.34375 27.453125 1.34375 Z M 27.453125 1.34375 "/></g></g></g><g fill="#000000" fill-opacity="1"><g transform="translate(457.657513, 331.333106)"><g><path d="M 5.359375 -46.875 L 11.390625 -46.875 L 11.390625 -5.6875 L 35.828125 -5.6875 L 35.828125 0 L 5.359375 0 Z M 5.359375 -46.875 "/></g></g></g><g fill="#000000" fill-opacity="1"><g transform="translate(491.808714, 331.333106)"><g><path d="M 5.359375 -46.875 L 38.171875 -46.875 L 38.171875 -41.1875 L 11.390625 -41.1875 L 11.390625 -26.453125 L 33.15625 -26.453125 L 33.15625 -20.765625 L 11.390625 -20.765625 L 11.390625 -5.6875 L 38.171875 -5.6875 L 38.171875 0 L 5.359375 0 Z M 5.359375 -46.875 "/></g></g></g><g fill="#000000" fill-opacity="1"><g transform="translate(530.647347, 331.333106)"><g><path d="M 13.390625 -46.875 L 31.8125 -46.875 L 43.859375 0 L 37.84375 0 L 34.15625 -13.734375 L 11.046875 -13.734375 L 7.359375 0 L 1.34375 0 Z M 32.8125 -19.421875 L 27.125 -41.1875 L 18.078125 -41.1875 L 12.390625 -19.421875 Z M 32.8125 -19.421875 "/></g></g></g><g fill="#000000" fill-opacity="1"><g transform="translate(573.838596, 331.333106)"><g><path d="M 5.359375 -46.875 L 14.0625 -46.875 L 37.09375 -7.359375 L 37.234375 -7.359375 L 37.171875 -8.03125 L 37.171875 -46.875 L 43.1875 -46.875 L 43.1875 0 L 34.484375 0 L 11.453125 -39.515625 L 11.3125 -39.515625 L 11.390625 -38.84375 L 11.390625 -0.0625 L 5.359375 0 Z M 5.359375 -46.875 "/></g></g></g><g fill="#000000" fill-opacity="1"><g transform="translate(354.590523, 81.036469)"><g><path d="M 10.730469 -8.605469 C 17.476562 -8.242188 20.265625 -10.972656 20.265625 -14.929688 C 20.265625 -19.035156 17.296875 -21.195312 11.210938 -21.195312 C 8.332031 -21.195312 5.546875 -21.015625 3.058594 -20.984375 C 2.519531 -20.984375 1.648438 -21.042969 1.167969 -21.042969 C 1.109375 -21.042969 0.75 -20.113281 1.738281 -19.84375 C 2.636719 -19.636719 3.296875 -19.425781 3.296875 -17.027344 L 3.296875 -3.957031 C 3.296875 -1.558594 2.636719 -1.347656 1.738281 -1.140625 C 0.75 -0.871094 1.109375 0.0898438 1.199219 0.0898438 C 1.648438 0.0585938 2.519531 0 3.058594 0 L 8.84375 0 C 9.53125 0 10.671875 0.0585938 11.273438 0.0898438 C 11.363281 0.0898438 11.8125 -0.871094 10.523438 -1.140625 C 9.351562 -1.347656 8.484375 -1.558594 8.484375 -3.957031 L 8.484375 -18.765625 C 8.484375 -19.726562 8.695312 -19.933594 9.503906 -19.933594 L 10.613281 -19.933594 C 13.128906 -19.90625 14.6875 -17.476562 14.6875 -14.75 C 14.6875 -11.390625 13.28125 -9.984375 10.460938 -9.894531 L 9.53125 -9.894531 C 9.023438 -9.863281 9.023438 -9.292969 9.324219 -8.664062 Z M 10.730469 -8.605469 "/></g></g></g><g fill="#000000" fill-opacity="1"><g transform="translate(374.822553, 81.036469)"><g><path d="M 18.375 -3.175781 C 18.226562 -2.9375 18.046875 -2.726562 17.6875 -2.726562 C 17.148438 -2.726562 16.96875 -3.117188 16.96875 -4.257812 L 16.9375 -8.574219 C 16.9375 -10.492188 17.027344 -11.601562 17.207031 -14 C 17.238281 -14.417969 16.339844 -14.449219 16.246094 -14.390625 C 14.929688 -13.429688 13.25 -12.859375 10.492188 -12.441406 C 10.460938 -12.441406 10.101562 -11.363281 10.941406 -11.0625 C 11.929688 -10.761719 12.140625 -10.011719 12.140625 -9.082031 L 12.140625 -6.054688 C 12.140625 -3.957031 11.183594 -2.039062 9.382812 -2.039062 C 7.914062 -2.039062 7.015625 -3.027344 7.015625 -5.457031 L 7.015625 -8.574219 C 7.015625 -10.492188 7.105469 -11.601562 7.285156 -14 C 7.316406 -14.417969 6.414062 -14.449219 6.324219 -14.390625 C 5.007812 -13.429688 3.328125 -12.859375 0.570312 -12.441406 C 0.539062 -12.441406 0.179688 -11.363281 1.019531 -11.0625 C 2.007812 -10.761719 2.21875 -10.011719 2.21875 -9.082031 L 2.21875 -5.394531 C 2.21875 -1.347656 4.375 0.539062 7.40625 0.539062 C 9.921875 0.539062 11.480469 -0.808594 12.230469 -2.429688 C 12.589844 -0.417969 14.058594 0.480469 15.589844 0.480469 C 18.015625 0.480469 19.246094 -1.050781 19.246094 -2.277344 C 19.246094 -3.328125 18.464844 -3.296875 18.375 -3.175781 Z M 18.375 -3.175781 "/></g></g></g><g fill="#000000" fill-opacity="1"><g transform="translate(393.915581, 81.036469)"><g><path d="M 11.929688 -14.449219 C 9.742188 -14.449219 8.542969 -13.101562 7.914062 -11.601562 C 7.945312 -12.289062 8.003906 -13.039062 8.0625 -14 C 8.125 -14.417969 7.195312 -14.449219 7.132812 -14.390625 C 5.785156 -13.429688 4.136719 -12.859375 1.347656 -12.441406 C 1.320312 -12.441406 0.988281 -11.363281 1.796875 -11.0625 C 2.789062 -10.761719 3.027344 -10.011719 3.027344 -9.082031 L 3.027344 -3.988281 C 3.027344 -2.097656 2.699219 -1.320312 1.738281 -1.230469 C 0.539062 -1.109375 0.75 0.0898438 1.019531 0.0585938 C 3.925781 -0.03125 7.253906 -0.0585938 9.742188 0.0585938 C 10.074219 0.0898438 10.28125 -1.109375 9.144531 -1.199219 C 8.214844 -1.289062 7.824219 -2.128906 7.824219 -3.957031 L 7.824219 -6.746094 C 7.855469 -8.933594 8.183594 -11.691406 9.894531 -11.691406 C 10.882812 -11.691406 11.839844 -11.03125 11.632812 -8.304688 C 11.601562 -6.925781 13.28125 -7.195312 13.308594 -7.285156 L 14.75 -11.300781 C 15.289062 -12.890625 13.761719 -14.449219 11.929688 -14.449219 Z M 11.929688 -14.449219 "/></g></g></g><g fill="#000000" fill-opacity="1"><g transform="translate(408.452607, 81.036469)"><g><path d="M 4.828125 -16.1875 C 6.625 -16.1875 8.003906 -17.238281 8.003906 -18.644531 C 8.003906 -19.90625 6.894531 -20.925781 5.1875 -20.925781 C 3.386719 -20.925781 2.007812 -19.875 2.007812 -18.4375 C 2.007812 -17.175781 3.117188 -16.1875 4.828125 -16.1875 Z M 7.734375 -8.574219 C 7.734375 -10.492188 7.792969 -11.601562 8.003906 -14 C 8.035156 -14.417969 7.132812 -14.449219 7.042969 -14.390625 C 5.695312 -13.429688 4.046875 -12.859375 1.289062 -12.441406 C 1.230469 -12.441406 0.898438 -11.363281 1.707031 -11.0625 C 2.726562 -10.761719 2.9375 -10.011719 2.9375 -9.082031 L 2.9375 -3.988281 C 2.9375 -2.097656 2.609375 -1.320312 1.648438 -1.230469 C 0.480469 -1.109375 0.871094 0.0585938 0.960938 0.0585938 C 3.835938 -0.03125 7.195312 -0.0585938 9.652344 0.0585938 C 9.742188 0.0585938 10.191406 -1.109375 9.054688 -1.199219 C 8.125 -1.289062 7.734375 -2.128906 7.734375 -3.957031 Z M 7.734375 -8.574219 "/></g></g></g><g fill="#000000" fill-opacity="1"><g transform="translate(418.493576, 81.036469)"><g><path d="M 2.339844 -12.679688 C 2.90625 -12.679688 3.148438 -12.5 3.148438 -11.332031 L 3.148438 -3.988281 C 3.148438 -2.21875 2.847656 -1.347656 1.828125 -1.230469 C 0.691406 -1.109375 0.898438 0.0585938 1.140625 0.0585938 C 1.527344 0.0585938 2.488281 0 3.117188 0 L 8.003906 -0.03125 C 8.8125 -0.03125 10.074219 0 10.582031 0.03125 C 10.882812 0.03125 11.121094 -1.140625 9.683594 -1.257812 C 8.363281 -1.347656 7.945312 -2.25 7.945312 -4.015625 L 7.945312 -11.121094 C 7.945312 -12.621094 8.332031 -12.679688 8.992188 -12.679688 L 10.582031 -12.679688 C 11.363281 -12.679688 11.121094 -13.941406 10.851562 -13.941406 L 9.171875 -13.941406 C 8.332031 -13.941406 7.855469 -14 7.285156 -14.210938 C 5.753906 -15.886719 4.046875 -18.765625 5.007812 -19.753906 C 5.636719 -20.476562 6.984375 -20.175781 8.421875 -18.226562 C 8.8125 -17.65625 9.203125 -17.6875 9.5625 -17.957031 C 10.28125 -18.496094 10.820312 -19.066406 11.570312 -19.664062 C 12.019531 -20.023438 11.929688 -20.414062 11.542969 -20.835938 C 9.414062 -23.023438 2.070312 -22.421875 2.996094 -16.636719 C 3.207031 -14.480469 2.429688 -14.058594 1.589844 -13.96875 C 0.660156 -13.820312 0.71875 -12.679688 1.019531 -12.679688 Z M 2.339844 -12.679688 "/></g></g></g><g fill="#000000" fill-opacity="1"><g transform="translate(429.673546, 81.036469)"><g><path d="M 17.507812 -13.96875 C 17.175781 -13.941406 16.429688 -13.910156 15.917969 -13.910156 L 14.390625 -13.910156 C 13.667969 -13.910156 12.5625 -13.941406 12.082031 -13.96875 C 11.8125 -13.96875 11.601562 -12.800781 12.890625 -12.679688 C 14.058594 -12.5625 13.96875 -11.78125 13.28125 -10.132812 L 11.03125 -4.554688 C 10.941406 -4.285156 10.761719 -4.285156 10.640625 -4.554688 L 8.273438 -10.164062 C 7.585938 -11.78125 7.464844 -12.5625 8.722656 -12.679688 C 10.101562 -12.800781 9.863281 -13.96875 9.59375 -13.96875 C 9.082031 -13.941406 7.914062 -13.910156 7.132812 -13.910156 L 1.828125 -13.910156 C 1.320312 -13.910156 0.570312 -13.941406 0.238281 -13.96875 C 0.0585938 -13.96875 -0.0898438 -12.800781 0.808594 -12.679688 C 1.617188 -12.5625 2.367188 -11.78125 3.058594 -10.132812 L 7.105469 -0.507812 C 7.613281 0.75 7.824219 1.46875 7.824219 2.1875 C 7.316406 3.746094 6.625 4.648438 5.875 4.648438 C 4.257812 4.648438 4.046875 2.039062 4.375 0.71875 C 2.816406 -0.0898438 0.449219 0.898438 0.480469 3.207031 C 0.570312 5.574219 2.726562 6.414062 4.707031 6.414062 C 7.375 6.414062 8.515625 4.40625 10.371094 0.359375 L 10.433594 0.210938 L 14.71875 -10.132812 C 15.410156 -11.78125 16.128906 -12.5625 16.9375 -12.679688 C 17.835938 -12.800781 17.6875 -13.96875 17.507812 -13.96875 Z M 17.507812 -13.96875 "/></g></g></g><g fill="#000000" fill-opacity="1"><g transform="translate(446.854084, 81.036469)"><g/></g></g><g fill="#000000" fill-opacity="1"><g transform="translate(307.539563, 417.204368)"><g><path d="M 11.5 -4.828125 C 11.8125 -4.828125 12.03125 -4.769531 12.15625 -4.65625 C 12.28125 -4.539062 12.34375 -4.351562 12.34375 -4.09375 L 12.34375 -0.765625 C 12.34375 -0.484375 12.285156 -0.285156 12.171875 -0.171875 C 12.066406 -0.0546875 11.890625 0 11.640625 0 L 1.609375 0 C 1.347656 0 1.160156 -0.0546875 1.046875 -0.171875 C 0.941406 -0.285156 0.890625 -0.484375 0.890625 -0.765625 C 0.890625 -1.035156 0.941406 -1.226562 1.046875 -1.34375 C 1.160156 -1.46875 1.347656 -1.53125 1.609375 -1.53125 L 2.75 -1.53125 L 2.75 -11.796875 L 1.609375 -11.796875 C 1.347656 -11.796875 1.160156 -11.851562 1.046875 -11.96875 C 0.941406 -12.082031 0.890625 -12.28125 0.890625 -12.5625 C 0.890625 -12.832031 0.941406 -13.023438 1.046875 -13.140625 C 1.160156 -13.265625 1.347656 -13.328125 1.609375 -13.328125 L 11.40625 -13.328125 C 11.664062 -13.328125 11.847656 -13.265625 11.953125 -13.140625 C 12.066406 -13.023438 12.125 -12.832031 12.125 -12.5625 L 12.125 -9.703125 C 12.125 -9.441406 12.054688 -9.253906 11.921875 -9.140625 C 11.796875 -9.035156 11.582031 -8.984375 11.28125 -8.984375 C 10.96875 -8.984375 10.75 -9.035156 10.625 -9.140625 C 10.5 -9.253906 10.4375 -9.441406 10.4375 -9.703125 L 10.4375 -11.796875 L 4.4375 -11.796875 L 4.4375 -7.625 L 7.328125 -7.625 L 7.328125 -8.65625 C 7.328125 -8.914062 7.382812 -9.097656 7.5 -9.203125 C 7.613281 -9.316406 7.820312 -9.375 8.125 -9.375 C 8.425781 -9.375 8.632812 -9.316406 8.75 -9.203125 C 8.863281 -9.097656 8.921875 -8.914062 8.921875 -8.65625 L 8.921875 -5.078125 C 8.921875 -4.816406 8.863281 -4.628906 8.75 -4.515625 C 8.632812 -4.410156 8.425781 -4.359375 8.125 -4.359375 C 7.820312 -4.359375 7.613281 -4.410156 7.5 -4.515625 C 7.382812 -4.628906 7.328125 -4.816406 7.328125 -5.078125 L 7.328125 -6.109375 L 4.4375 -6.109375 L 4.4375 -1.53125 L 10.65625 -1.53125 L 10.65625 -4.09375 C 10.65625 -4.351562 10.71875 -4.539062 10.84375 -4.65625 C 10.976562 -4.769531 11.195312 -4.828125 11.5 -4.828125 Z M 11.5 -4.828125 "/></g></g></g><g fill="#000000" fill-opacity="1"><g transform="translate(321.319169, 417.204368)"><g><path d="M 8.984375 -14.78125 C 9.984375 -14.78125 10.976562 -14.585938 11.96875 -14.203125 C 12.320312 -14.066406 12.5 -13.820312 12.5 -13.46875 C 12.5 -13.382812 12.488281 -13.285156 12.46875 -13.171875 C 12.363281 -12.742188 12.175781 -12.53125 11.90625 -12.53125 C 11.820312 -12.53125 11.734375 -12.550781 11.640625 -12.59375 C 10.691406 -12.957031 9.804688 -13.140625 8.984375 -13.140625 C 7.472656 -13.140625 6.71875 -12.328125 6.71875 -10.703125 L 6.71875 -9.46875 L 10.59375 -9.46875 C 10.84375 -9.46875 11.019531 -9.410156 11.125 -9.296875 C 11.238281 -9.179688 11.296875 -8.984375 11.296875 -8.703125 C 11.296875 -8.429688 11.238281 -8.238281 11.125 -8.125 C 11.019531 -8.007812 10.84375 -7.953125 10.59375 -7.953125 L 6.71875 -7.953125 L 6.71875 -1.53125 L 10.59375 -1.53125 C 10.84375 -1.53125 11.019531 -1.46875 11.125 -1.34375 C 11.238281 -1.226562 11.296875 -1.035156 11.296875 -0.765625 C 11.296875 -0.484375 11.238281 -0.285156 11.125 -0.171875 C 11.019531 -0.0546875 10.84375 0 10.59375 0 L 2.8125 0 C 2.550781 0 2.363281 -0.0546875 2.25 -0.171875 C 2.144531 -0.285156 2.09375 -0.484375 2.09375 -0.765625 C 2.09375 -1.035156 2.144531 -1.226562 2.25 -1.34375 C 2.363281 -1.46875 2.550781 -1.53125 2.8125 -1.53125 L 5.03125 -1.53125 L 5.03125 -7.953125 L 2.8125 -7.953125 C 2.550781 -7.953125 2.363281 -8.007812 2.25 -8.125 C 2.144531 -8.238281 2.09375 -8.429688 2.09375 -8.703125 C 2.09375 -8.984375 2.144531 -9.179688 2.25 -9.296875 C 2.363281 -9.410156 2.550781 -9.46875 2.8125 -9.46875 L 5.03125 -9.46875 L 5.03125 -10.859375 C 5.03125 -12.085938 5.375 -13.046875 6.0625 -13.734375 C 6.757812 -14.429688 7.734375 -14.78125 8.984375 -14.78125 Z M 8.984375 -14.78125 "/></g></g></g><g fill="#000000" fill-opacity="1"><g transform="translate(335.098774, 417.204368)"><g><path d="M 8.984375 -14.78125 C 9.984375 -14.78125 10.976562 -14.585938 11.96875 -14.203125 C 12.320312 -14.066406 12.5 -13.820312 12.5 -13.46875 C 12.5 -13.382812 12.488281 -13.285156 12.46875 -13.171875 C 12.363281 -12.742188 12.175781 -12.53125 11.90625 -12.53125 C 11.820312 -12.53125 11.734375 -12.550781 11.640625 -12.59375 C 10.691406 -12.957031 9.804688 -13.140625 8.984375 -13.140625 C 7.472656 -13.140625 6.71875 -12.328125 6.71875 -10.703125 L 6.71875 -9.46875 L 10.59375 -9.46875 C 10.84375 -9.46875 11.019531 -9.410156 11.125 -9.296875 C 11.238281 -9.179688 11.296875 -8.984375 11.296875 -8.703125 C 11.296875 -8.429688 11.238281 -8.238281 11.125 -8.125 C 11.019531 -8.007812 10.84375 -7.953125 10.59375 -7.953125 L 6.71875 -7.953125 L 6.71875 -1.53125 L 10.59375 -1.53125 C 10.84375 -1.53125 11.019531 -1.46875 11.125 -1.34375 C 11.238281 -1.226562 11.296875 -1.035156 11.296875 -0.765625 C 11.296875 -0.484375 11.238281 -0.285156 11.125 -0.171875 C 11.019531 -0.0546875 10.84375 0 10.59375 0 L 2.8125 0 C 2.550781 0 2.363281 -0.0546875 2.25 -0.171875 C 2.144531 -0.285156 2.09375 -0.484375 2.09375 -0.765625 C 2.09375 -1.035156 2.144531 -1.226562 2.25 -1.34375 C 2.363281 -1.46875 2.550781 -1.53125 2.8125 -1.53125 L 5.03125 -1.53125 L 5.03125 -7.953125 L 2.8125 -7.953125 C 2.550781 -7.953125 2.363281 -8.007812 2.25 -8.125 C 2.144531 -8.238281 2.09375 -8.429688 2.09375 -8.703125 C 2.09375 -8.984375 2.144531 -9.179688 2.25 -9.296875 C 2.363281 -9.410156 2.550781 -9.46875 2.8125 -9.46875 L 5.03125 -9.46875 L 5.03125 -10.859375 C 5.03125 -12.085938 5.375 -13.046875 6.0625 -13.734375 C 6.757812 -14.429688 7.734375 -14.78125 8.984375 -14.78125 Z M 8.984375 -14.78125 "/></g></g></g><g fill="#000000" fill-opacity="1"><g transform="translate(348.87838, 417.204368)"><g><path d="M 6.890625 -10.609375 C 7.910156 -10.609375 8.832031 -10.375 9.65625 -9.90625 C 10.476562 -9.445312 11.125 -8.804688 11.59375 -7.984375 C 12.0625 -7.160156 12.296875 -6.226562 12.296875 -5.1875 C 12.296875 -4.144531 12.0625 -3.207031 11.59375 -2.375 C 11.125 -1.550781 10.476562 -0.90625 9.65625 -0.4375 C 8.832031 0.0195312 7.910156 0.25 6.890625 0.25 C 5.867188 0.25 4.945312 0.0195312 4.125 -0.4375 C 3.300781 -0.90625 2.65625 -1.550781 2.1875 -2.375 C 1.71875 -3.207031 1.484375 -4.144531 1.484375 -5.1875 C 1.484375 -6.226562 1.71875 -7.160156 2.1875 -7.984375 C 2.65625 -8.804688 3.300781 -9.445312 4.125 -9.90625 C 4.945312 -10.375 5.867188 -10.609375 6.890625 -10.609375 Z M 6.890625 -8.953125 C 6.160156 -8.953125 5.519531 -8.789062 4.96875 -8.46875 C 4.425781 -8.15625 4.003906 -7.710938 3.703125 -7.140625 C 3.398438 -6.566406 3.25 -5.914062 3.25 -5.1875 C 3.25 -4.445312 3.398438 -3.789062 3.703125 -3.21875 C 4.003906 -2.65625 4.425781 -2.210938 4.96875 -1.890625 C 5.519531 -1.578125 6.160156 -1.421875 6.890625 -1.421875 C 7.617188 -1.421875 8.253906 -1.578125 8.796875 -1.890625 C 9.347656 -2.210938 9.773438 -2.65625 10.078125 -3.21875 C 10.378906 -3.789062 10.53125 -4.445312 10.53125 -5.1875 C 10.53125 -5.914062 10.378906 -6.566406 10.078125 -7.140625 C 9.773438 -7.710938 9.347656 -8.15625 8.796875 -8.46875 C 8.253906 -8.789062 7.617188 -8.953125 6.890625 -8.953125 Z M 6.890625 -8.953125 "/></g></g></g><g fill="#000000" fill-opacity="1"><g transform="translate(362.657986, 417.204368)"><g><path d="M 10.328125 -10.609375 C 10.910156 -10.609375 11.457031 -10.460938 11.96875 -10.171875 C 12.257812 -9.992188 12.40625 -9.757812 12.40625 -9.46875 C 12.40625 -9.332031 12.375 -9.175781 12.3125 -9 C 12.15625 -8.570312 11.9375 -8.359375 11.65625 -8.359375 C 11.550781 -8.359375 11.445312 -8.390625 11.34375 -8.453125 C 10.976562 -8.648438 10.585938 -8.75 10.171875 -8.75 C 9.492188 -8.75 8.8125 -8.515625 8.125 -8.046875 C 7.445312 -7.578125 6.890625 -6.953125 6.453125 -6.171875 C 6.015625 -5.398438 5.796875 -4.578125 5.796875 -3.703125 L 5.796875 -1.53125 L 9.578125 -1.53125 C 9.835938 -1.53125 10.019531 -1.46875 10.125 -1.34375 C 10.238281 -1.226562 10.296875 -1.035156 10.296875 -0.765625 C 10.296875 -0.484375 10.238281 -0.285156 10.125 -0.171875 C 10.019531 -0.0546875 9.835938 0 9.578125 0 L 2.359375 0 C 2.097656 0 1.914062 -0.0546875 1.8125 -0.171875 C 1.707031 -0.285156 1.65625 -0.484375 1.65625 -0.765625 C 1.65625 -1.035156 1.707031 -1.226562 1.8125 -1.34375 C 1.914062 -1.46875 2.097656 -1.53125 2.359375 -1.53125 L 4.125 -1.53125 L 4.125 -8.84375 L 2.6875 -8.84375 C 2.4375 -8.84375 2.253906 -8.898438 2.140625 -9.015625 C 2.035156 -9.128906 1.984375 -9.328125 1.984375 -9.609375 C 1.984375 -9.878906 2.035156 -10.070312 2.140625 -10.1875 C 2.253906 -10.3125 2.4375 -10.375 2.6875 -10.375 L 4.984375 -10.375 C 5.234375 -10.375 5.410156 -10.3125 5.515625 -10.1875 C 5.628906 -10.070312 5.6875 -9.878906 5.6875 -9.609375 L 5.6875 -7.34375 C 6.050781 -8 6.484375 -8.570312 6.984375 -9.0625 C 7.492188 -9.5625 8.035156 -9.941406 8.609375 -10.203125 C 9.191406 -10.472656 9.765625 -10.609375 10.328125 -10.609375 Z M 10.328125 -10.609375 "/></g></g></g><g fill="#000000" fill-opacity="1"><g transform="translate(376.437591, 417.204368)"><g><path d="M 5.140625 -13.5625 C 5.441406 -13.5625 5.65625 -13.503906 5.78125 -13.390625 C 5.914062 -13.285156 5.984375 -13.101562 5.984375 -12.84375 L 5.984375 -9.46875 L 10.59375 -9.46875 C 10.84375 -9.46875 11.019531 -9.410156 11.125 -9.296875 C 11.238281 -9.179688 11.296875 -8.984375 11.296875 -8.703125 C 11.296875 -8.429688 11.238281 -8.238281 11.125 -8.125 C 11.019531 -8.007812 10.84375 -7.953125 10.59375 -7.953125 L 5.984375 -7.953125 L 5.984375 -3.859375 C 5.984375 -3.003906 6.128906 -2.378906 6.421875 -1.984375 C 6.722656 -1.585938 7.238281 -1.390625 7.96875 -1.390625 C 8.46875 -1.390625 8.992188 -1.488281 9.546875 -1.6875 C 10.097656 -1.894531 10.632812 -2.164062 11.15625 -2.5 C 11.257812 -2.570312 11.375 -2.609375 11.5 -2.609375 C 11.757812 -2.609375 11.976562 -2.4375 12.15625 -2.09375 C 12.25 -1.90625 12.296875 -1.738281 12.296875 -1.59375 C 12.296875 -1.351562 12.175781 -1.160156 11.9375 -1.015625 C 11.34375 -0.640625 10.6875 -0.332031 9.96875 -0.09375 C 9.257812 0.132812 8.59375 0.25 7.96875 0.25 C 6.695312 0.25 5.765625 -0.078125 5.171875 -0.734375 C 4.585938 -1.398438 4.296875 -2.394531 4.296875 -3.71875 L 4.296875 -7.953125 L 2.015625 -7.953125 C 1.765625 -7.953125 1.582031 -8.007812 1.46875 -8.125 C 1.363281 -8.238281 1.3125 -8.429688 1.3125 -8.703125 C 1.3125 -8.984375 1.363281 -9.179688 1.46875 -9.296875 C 1.582031 -9.410156 1.765625 -9.46875 2.015625 -9.46875 L 4.296875 -9.46875 L 4.296875 -12.84375 C 4.296875 -13.101562 4.359375 -13.285156 4.484375 -13.390625 C 4.617188 -13.503906 4.835938 -13.5625 5.140625 -13.5625 Z M 5.140625 -13.5625 "/></g></g></g><g fill="#000000" fill-opacity="1"><g transform="translate(390.217197, 417.204368)"><g><path d="M 7.1875 -14.71875 C 7.4375 -14.71875 7.613281 -14.660156 7.71875 -14.546875 C 7.832031 -14.429688 7.890625 -14.238281 7.890625 -13.96875 L 7.890625 -1.53125 L 11.5 -1.53125 C 11.75 -1.53125 11.925781 -1.46875 12.03125 -1.34375 C 12.144531 -1.226562 12.203125 -1.035156 12.203125 -0.765625 C 12.203125 -0.484375 12.144531 -0.285156 12.03125 -0.171875 C 11.925781 -0.0546875 11.75 0 11.5 0 L 2.6875 0 C 2.4375 0 2.253906 -0.0546875 2.140625 -0.171875 C 2.035156 -0.285156 1.984375 -0.484375 1.984375 -0.765625 C 1.984375 -1.035156 2.035156 -1.226562 2.140625 -1.34375 C 2.253906 -1.46875 2.4375 -1.53125 2.6875 -1.53125 L 6.203125 -1.53125 L 6.203125 -13.203125 L 3.140625 -13.203125 C 2.890625 -13.203125 2.707031 -13.257812 2.59375 -13.375 C 2.488281 -13.488281 2.4375 -13.6875 2.4375 -13.96875 C 2.4375 -14.238281 2.488281 -14.429688 2.59375 -14.546875 C 2.707031 -14.660156 2.890625 -14.71875 3.140625 -14.71875 Z M 7.1875 -14.71875 "/></g></g></g><g fill="#000000" fill-opacity="1"><g transform="translate(403.996803, 417.204368)"><g><path d="M 6.984375 -10.609375 C 8.078125 -10.609375 9.003906 -10.390625 9.765625 -9.953125 C 10.535156 -9.515625 11.125 -8.910156 11.53125 -8.140625 C 11.945312 -7.367188 12.1875 -6.476562 12.25 -5.46875 C 12.25 -5.207031 12.191406 -5.023438 12.078125 -4.921875 C 11.972656 -4.816406 11.789062 -4.765625 11.53125 -4.765625 L 3.40625 -4.765625 C 3.457031 -3.648438 3.785156 -2.804688 4.390625 -2.234375 C 5.003906 -1.660156 5.867188 -1.375 6.984375 -1.375 C 7.679688 -1.375 8.363281 -1.460938 9.03125 -1.640625 C 9.707031 -1.816406 10.300781 -2.050781 10.8125 -2.34375 C 10.9375 -2.414062 11.050781 -2.453125 11.15625 -2.453125 C 11.414062 -2.453125 11.628906 -2.253906 11.796875 -1.859375 C 11.859375 -1.691406 11.890625 -1.546875 11.890625 -1.421875 C 11.890625 -1.117188 11.726562 -0.890625 11.40625 -0.734375 C 10.820312 -0.441406 10.140625 -0.203125 9.359375 -0.015625 C 8.578125 0.160156 7.785156 0.25 6.984375 0.25 C 5.859375 0.25 4.894531 0.03125 4.09375 -0.40625 C 3.289062 -0.84375 2.679688 -1.46875 2.265625 -2.28125 C 1.847656 -3.09375 1.640625 -4.0625 1.640625 -5.1875 C 1.640625 -6.257812 1.863281 -7.207031 2.3125 -8.03125 C 2.769531 -8.851562 3.40625 -9.488281 4.21875 -9.9375 C 5.03125 -10.382812 5.953125 -10.609375 6.984375 -10.609375 Z M 6.984375 -8.984375 C 6.066406 -8.984375 5.304688 -8.75 4.703125 -8.28125 C 4.097656 -7.820312 3.707031 -7.175781 3.53125 -6.34375 L 10.375 -6.34375 C 10.21875 -7.195312 9.859375 -7.847656 9.296875 -8.296875 C 8.734375 -8.753906 7.960938 -8.984375 6.984375 -8.984375 Z M 6.984375 -8.984375 "/></g></g></g><g fill="#000000" fill-opacity="1"><g transform="translate(417.776408, 417.204368)"><g><path d="M 10.421875 -10.609375 C 10.734375 -10.609375 10.953125 -10.550781 11.078125 -10.4375 C 11.203125 -10.332031 11.265625 -10.148438 11.265625 -9.890625 L 11.265625 -7.75 C 11.265625 -7.488281 11.203125 -7.300781 11.078125 -7.1875 C 10.953125 -7.082031 10.734375 -7.03125 10.421875 -7.03125 C 10.171875 -7.03125 9.992188 -7.125 9.890625 -7.3125 C 9.566406 -7.925781 9.097656 -8.359375 8.484375 -8.609375 C 7.867188 -8.859375 7.09375 -8.984375 6.15625 -8.984375 C 5.425781 -8.984375 4.859375 -8.851562 4.453125 -8.59375 C 4.046875 -8.34375 3.84375 -7.984375 3.84375 -7.515625 C 3.84375 -7.273438 3.914062 -7.082031 4.0625 -6.9375 C 4.21875 -6.789062 4.445312 -6.664062 4.75 -6.5625 C 5 -6.476562 5.285156 -6.414062 5.609375 -6.375 C 5.929688 -6.332031 6.351562 -6.285156 6.875 -6.234375 C 7.59375 -6.148438 8.175781 -6.070312 8.625 -6 C 9.070312 -5.925781 9.492188 -5.816406 9.890625 -5.671875 C 10.484375 -5.460938 10.945312 -5.148438 11.28125 -4.734375 C 11.613281 -4.328125 11.78125 -3.785156 11.78125 -3.109375 C 11.78125 -2.429688 11.609375 -1.835938 11.265625 -1.328125 C 10.929688 -0.828125 10.4375 -0.4375 9.78125 -0.15625 C 9.125 0.113281 8.335938 0.25 7.421875 0.25 C 6.617188 0.25 5.910156 0.140625 5.296875 -0.078125 C 4.679688 -0.304688 4.144531 -0.648438 3.6875 -1.109375 L 3.6875 -0.484375 C 3.6875 -0.222656 3.625 -0.0351562 3.5 0.078125 C 3.375 0.191406 3.15625 0.25 2.84375 0.25 C 2.539062 0.25 2.328125 0.191406 2.203125 0.078125 C 2.078125 -0.0351562 2.015625 -0.222656 2.015625 -0.484375 L 2.015625 -3.171875 C 2.015625 -3.429688 2.078125 -3.617188 2.203125 -3.734375 C 2.328125 -3.847656 2.539062 -3.90625 2.84375 -3.90625 C 3.007812 -3.90625 3.132812 -3.867188 3.21875 -3.796875 C 3.3125 -3.722656 3.390625 -3.609375 3.453125 -3.453125 C 3.722656 -2.734375 4.171875 -2.207031 4.796875 -1.875 C 5.429688 -1.539062 6.269531 -1.375 7.3125 -1.375 C 8.1875 -1.375 8.851562 -1.53125 9.3125 -1.84375 C 9.78125 -2.164062 10.015625 -2.585938 10.015625 -3.109375 C 10.015625 -3.359375 9.929688 -3.566406 9.765625 -3.734375 C 9.597656 -3.898438 9.363281 -4.035156 9.0625 -4.140625 C 8.789062 -4.222656 8.484375 -4.289062 8.140625 -4.34375 C 7.804688 -4.40625 7.378906 -4.460938 6.859375 -4.515625 C 6.148438 -4.585938 5.5625 -4.664062 5.09375 -4.75 C 4.625 -4.832031 4.191406 -4.953125 3.796875 -5.109375 C 3.242188 -5.328125 2.816406 -5.628906 2.515625 -6.015625 C 2.210938 -6.398438 2.0625 -6.898438 2.0625 -7.515625 C 2.0625 -8.171875 2.234375 -8.734375 2.578125 -9.203125 C 2.921875 -9.671875 3.390625 -10.019531 3.984375 -10.25 C 4.585938 -10.488281 5.269531 -10.609375 6.03125 -10.609375 C 6.757812 -10.609375 7.425781 -10.5 8.03125 -10.28125 C 8.632812 -10.070312 9.148438 -9.769531 9.578125 -9.375 L 9.578125 -9.890625 C 9.578125 -10.148438 9.640625 -10.332031 9.765625 -10.4375 C 9.898438 -10.550781 10.117188 -10.609375 10.421875 -10.609375 Z M 10.421875 -10.609375 "/></g></g></g><g fill="#000000" fill-opacity="1"><g transform="translate(431.556014, 417.204368)"><g><path d="M 10.421875 -10.609375 C 10.734375 -10.609375 10.953125 -10.550781 11.078125 -10.4375 C 11.203125 -10.332031 11.265625 -10.148438 11.265625 -9.890625 L 11.265625 -7.75 C 11.265625 -7.488281 11.203125 -7.300781 11.078125 -7.1875 C 10.953125 -7.082031 10.734375 -7.03125 10.421875 -7.03125 C 10.171875 -7.03125 9.992188 -7.125 9.890625 -7.3125 C 9.566406 -7.925781 9.097656 -8.359375 8.484375 -8.609375 C 7.867188 -8.859375 7.09375 -8.984375 6.15625 -8.984375 C 5.425781 -8.984375 4.859375 -8.851562 4.453125 -8.59375 C 4.046875 -8.34375 3.84375 -7.984375 3.84375 -7.515625 C 3.84375 -7.273438 3.914062 -7.082031 4.0625 -6.9375 C 4.21875 -6.789062 4.445312 -6.664062 4.75 -6.5625 C 5 -6.476562 5.285156 -6.414062 5.609375 -6.375 C 5.929688 -6.332031 6.351562 -6.285156 6.875 -6.234375 C 7.59375 -6.148438 8.175781 -6.070312 8.625 -6 C 9.070312 -5.925781 9.492188 -5.816406 9.890625 -5.671875 C 10.484375 -5.460938 10.945312 -5.148438 11.28125 -4.734375 C 11.613281 -4.328125 11.78125 -3.785156 11.78125 -3.109375 C 11.78125 -2.429688 11.609375 -1.835938 11.265625 -1.328125 C 10.929688 -0.828125 10.4375 -0.4375 9.78125 -0.15625 C 9.125 0.113281 8.335938 0.25 7.421875 0.25 C 6.617188 0.25 5.910156 0.140625 5.296875 -0.078125 C 4.679688 -0.304688 4.144531 -0.648438 3.6875 -1.109375 L 3.6875 -0.484375 C 3.6875 -0.222656 3.625 -0.0351562 3.5 0.078125 C 3.375 0.191406 3.15625 0.25 2.84375 0.25 C 2.539062 0.25 2.328125 0.191406 2.203125 0.078125 C 2.078125 -0.0351562 2.015625 -0.222656 2.015625 -0.484375 L 2.015625 -3.171875 C 2.015625 -3.429688 2.078125 -3.617188 2.203125 -3.734375 C 2.328125 -3.847656 2.539062 -3.90625 2.84375 -3.90625 C 3.007812 -3.90625 3.132812 -3.867188 3.21875 -3.796875 C 3.3125 -3.722656 3.390625 -3.609375 3.453125 -3.453125 C 3.722656 -2.734375 4.171875 -2.207031 4.796875 -1.875 C 5.429688 -1.539062 6.269531 -1.375 7.3125 -1.375 C 8.1875 -1.375 8.851562 -1.53125 9.3125 -1.84375 C 9.78125 -2.164062 10.015625 -2.585938 10.015625 -3.109375 C 10.015625 -3.359375 9.929688 -3.566406 9.765625 -3.734375 C 9.597656 -3.898438 9.363281 -4.035156 9.0625 -4.140625 C 8.789062 -4.222656 8.484375 -4.289062 8.140625 -4.34375 C 7.804688 -4.40625 7.378906 -4.460938 6.859375 -4.515625 C 6.148438 -4.585938 5.5625 -4.664062 5.09375 -4.75 C 4.625 -4.832031 4.191406 -4.953125 3.796875 -5.109375 C 3.242188 -5.328125 2.816406 -5.628906 2.515625 -6.015625 C 2.210938 -6.398438 2.0625 -6.898438 2.0625 -7.515625 C 2.0625 -8.171875 2.234375 -8.734375 2.578125 -9.203125 C 2.921875 -9.671875 3.390625 -10.019531 3.984375 -10.25 C 4.585938 -10.488281 5.269531 -10.609375 6.03125 -10.609375 C 6.757812 -10.609375 7.425781 -10.5 8.03125 -10.28125 C 8.632812 -10.070312 9.148438 -9.769531 9.578125 -9.375 L 9.578125 -9.890625 C 9.578125 -10.148438 9.640625 -10.332031 9.765625 -10.4375 C 9.898438 -10.550781 10.117188 -10.609375 10.421875 -10.609375 Z M 10.421875 -10.609375 "/></g></g></g><g fill="#000000" fill-opacity="1"><g transform="translate(445.33562, 417.204368)"><g/></g></g><g fill="#000000" fill-opacity="1"><g transform="translate(459.115225, 417.204368)"><g><path d="M 6.890625 -13.328125 C 8.066406 -13.328125 9.097656 -13.054688 9.984375 -12.515625 C 10.878906 -11.984375 11.570312 -11.210938 12.0625 -10.203125 C 12.550781 -9.203125 12.796875 -8.019531 12.796875 -6.65625 C 12.796875 -5.289062 12.550781 -4.109375 12.0625 -3.109375 C 11.570312 -2.109375 10.878906 -1.335938 9.984375 -0.796875 C 9.097656 -0.265625 8.066406 0 6.890625 0 L 1.609375 0 C 1.347656 0 1.160156 -0.0546875 1.046875 -0.171875 C 0.941406 -0.285156 0.890625 -0.484375 0.890625 -0.765625 C 0.890625 -1.035156 0.941406 -1.226562 1.046875 -1.34375 C 1.160156 -1.46875 1.347656 -1.53125 1.609375 -1.53125 L 2.859375 -1.53125 L 2.859375 -11.796875 L 1.609375 -11.796875 C 1.347656 -11.796875 1.160156 -11.851562 1.046875 -11.96875 C 0.941406 -12.082031 0.890625 -12.28125 0.890625 -12.5625 C 0.890625 -12.832031 0.941406 -13.023438 1.046875 -13.140625 C 1.160156 -13.265625 1.347656 -13.328125 1.609375 -13.328125 Z M 4.546875 -1.53125 L 6.625 -1.53125 C 7.519531 -1.53125 8.296875 -1.722656 8.953125 -2.109375 C 9.609375 -2.503906 10.113281 -3.082031 10.46875 -3.84375 C 10.832031 -4.613281 11.015625 -5.550781 11.015625 -6.65625 C 11.015625 -7.757812 10.832031 -8.691406 10.46875 -9.453125 C 10.113281 -10.222656 9.609375 -10.804688 8.953125 -11.203125 C 8.296875 -11.597656 7.519531 -11.796875 6.625 -11.796875 L 4.546875 -11.796875 Z M 4.546875 -1.53125 "/></g></g></g><g fill="#000000" fill-opacity="1"><g transform="translate(472.894831, 417.204368)"><g><path d="M 6.9375 -10.609375 C 8.34375 -10.609375 9.394531 -10.296875 10.09375 -9.671875 C 10.800781 -9.046875 11.15625 -8.113281 11.15625 -6.875 L 11.15625 -2.40625 C 11.15625 -1.820312 11.398438 -1.53125 11.890625 -1.53125 L 12.28125 -1.53125 C 12.539062 -1.53125 12.722656 -1.46875 12.828125 -1.34375 C 12.941406 -1.226562 13 -1.035156 13 -0.765625 C 13 -0.484375 12.941406 -0.285156 12.828125 -0.171875 C 12.722656 -0.0546875 12.539062 0 12.28125 0 L 11.578125 0 C 11.085938 0 10.664062 -0.117188 10.3125 -0.359375 C 9.96875 -0.609375 9.742188 -0.96875 9.640625 -1.4375 C 9.023438 -0.894531 8.359375 -0.476562 7.640625 -0.1875 C 6.929688 0.101562 6.175781 0.25 5.375 0.25 C 4.625 0.25 3.957031 0.117188 3.375 -0.140625 C 2.789062 -0.398438 2.332031 -0.773438 2 -1.265625 C 1.675781 -1.765625 1.515625 -2.351562 1.515625 -3.03125 C 1.515625 -4.207031 1.9375 -5.078125 2.78125 -5.640625 C 3.625 -6.210938 4.71875 -6.5 6.0625 -6.5 C 7.25 -6.5 8.382812 -6.304688 9.46875 -5.921875 L 9.46875 -6.875 C 9.46875 -7.601562 9.265625 -8.132812 8.859375 -8.46875 C 8.453125 -8.8125 7.796875 -8.984375 6.890625 -8.984375 C 6.328125 -8.984375 5.742188 -8.90625 5.140625 -8.75 C 4.535156 -8.59375 3.957031 -8.378906 3.40625 -8.109375 C 3.28125 -8.035156 3.164062 -8 3.0625 -8 C 2.8125 -8 2.609375 -8.179688 2.453125 -8.546875 C 2.367188 -8.722656 2.328125 -8.867188 2.328125 -8.984375 C 2.328125 -9.242188 2.460938 -9.445312 2.734375 -9.59375 C 3.367188 -9.925781 4.046875 -10.175781 4.765625 -10.34375 C 5.484375 -10.519531 6.207031 -10.609375 6.9375 -10.609375 Z M 6.078125 -4.921875 C 5.210938 -4.921875 4.53125 -4.769531 4.03125 -4.46875 C 3.53125 -4.175781 3.28125 -3.707031 3.28125 -3.0625 C 3.28125 -2.519531 3.46875 -2.09375 3.84375 -1.78125 C 4.226562 -1.476562 4.757812 -1.328125 5.4375 -1.328125 C 6.925781 -1.328125 8.269531 -1.945312 9.46875 -3.1875 L 9.46875 -4.40625 C 8.957031 -4.570312 8.410156 -4.695312 7.828125 -4.78125 C 7.242188 -4.875 6.660156 -4.921875 6.078125 -4.921875 Z M 6.078125 -4.921875 "/></g></g></g><g fill="#000000" fill-opacity="1"><g transform="translate(486.674436, 417.204368)"><g><path d="M 5.140625 -13.5625 C 5.441406 -13.5625 5.65625 -13.503906 5.78125 -13.390625 C 5.914062 -13.285156 5.984375 -13.101562 5.984375 -12.84375 L 5.984375 -9.46875 L 10.59375 -9.46875 C 10.84375 -9.46875 11.019531 -9.410156 11.125 -9.296875 C 11.238281 -9.179688 11.296875 -8.984375 11.296875 -8.703125 C 11.296875 -8.429688 11.238281 -8.238281 11.125 -8.125 C 11.019531 -8.007812 10.84375 -7.953125 10.59375 -7.953125 L 5.984375 -7.953125 L 5.984375 -3.859375 C 5.984375 -3.003906 6.128906 -2.378906 6.421875 -1.984375 C 6.722656 -1.585938 7.238281 -1.390625 7.96875 -1.390625 C 8.46875 -1.390625 8.992188 -1.488281 9.546875 -1.6875 C 10.097656 -1.894531 10.632812 -2.164062 11.15625 -2.5 C 11.257812 -2.570312 11.375 -2.609375 11.5 -2.609375 C 11.757812 -2.609375 11.976562 -2.4375 12.15625 -2.09375 C 12.25 -1.90625 12.296875 -1.738281 12.296875 -1.59375 C 12.296875 -1.351562 12.175781 -1.160156 11.9375 -1.015625 C 11.34375 -0.640625 10.6875 -0.332031 9.96875 -0.09375 C 9.257812 0.132812 8.59375 0.25 7.96875 0.25 C 6.695312 0.25 5.765625 -0.078125 5.171875 -0.734375 C 4.585938 -1.398438 4.296875 -2.394531 4.296875 -3.71875 L 4.296875 -7.953125 L 2.015625 -7.953125 C 1.765625 -7.953125 1.582031 -8.007812 1.46875 -8.125 C 1.363281 -8.238281 1.3125 -8.429688 1.3125 -8.703125 C 1.3125 -8.984375 1.363281 -9.179688 1.46875 -9.296875 C 1.582031 -9.410156 1.765625 -9.46875 2.015625 -9.46875 L 4.296875 -9.46875 L 4.296875 -12.84375 C 4.296875 -13.101562 4.359375 -13.285156 4.484375 -13.390625 C 4.617188 -13.503906 4.835938 -13.5625 5.140625 -13.5625 Z M 5.140625 -13.5625 "/></g></g></g><g fill="#000000" fill-opacity="1"><g transform="translate(500.454042, 417.204368)"><g><path d="M 6.9375 -10.609375 C 8.34375 -10.609375 9.394531 -10.296875 10.09375 -9.671875 C 10.800781 -9.046875 11.15625 -8.113281 11.15625 -6.875 L 11.15625 -2.40625 C 11.15625 -1.820312 11.398438 -1.53125 11.890625 -1.53125 L 12.28125 -1.53125 C 12.539062 -1.53125 12.722656 -1.46875 12.828125 -1.34375 C 12.941406 -1.226562 13 -1.035156 13 -0.765625 C 13 -0.484375 12.941406 -0.285156 12.828125 -0.171875 C 12.722656 -0.0546875 12.539062 0 12.28125 0 L 11.578125 0 C 11.085938 0 10.664062 -0.117188 10.3125 -0.359375 C 9.96875 -0.609375 9.742188 -0.96875 9.640625 -1.4375 C 9.023438 -0.894531 8.359375 -0.476562 7.640625 -0.1875 C 6.929688 0.101562 6.175781 0.25 5.375 0.25 C 4.625 0.25 3.957031 0.117188 3.375 -0.140625 C 2.789062 -0.398438 2.332031 -0.773438 2 -1.265625 C 1.675781 -1.765625 1.515625 -2.351562 1.515625 -3.03125 C 1.515625 -4.207031 1.9375 -5.078125 2.78125 -5.640625 C 3.625 -6.210938 4.71875 -6.5 6.0625 -6.5 C 7.25 -6.5 8.382812 -6.304688 9.46875 -5.921875 L 9.46875 -6.875 C 9.46875 -7.601562 9.265625 -8.132812 8.859375 -8.46875 C 8.453125 -8.8125 7.796875 -8.984375 6.890625 -8.984375 C 6.328125 -8.984375 5.742188 -8.90625 5.140625 -8.75 C 4.535156 -8.59375 3.957031 -8.378906 3.40625 -8.109375 C 3.28125 -8.035156 3.164062 -8 3.0625 -8 C 2.8125 -8 2.609375 -8.179688 2.453125 -8.546875 C 2.367188 -8.722656 2.328125 -8.867188 2.328125 -8.984375 C 2.328125 -9.242188 2.460938 -9.445312 2.734375 -9.59375 C 3.367188 -9.925781 4.046875 -10.175781 4.765625 -10.34375 C 5.484375 -10.519531 6.207031 -10.609375 6.9375 -10.609375 Z M 6.078125 -4.921875 C 5.210938 -4.921875 4.53125 -4.769531 4.03125 -4.46875 C 3.53125 -4.175781 3.28125 -3.707031 3.28125 -3.0625 C 3.28125 -2.519531 3.46875 -2.09375 3.84375 -1.78125 C 4.226562 -1.476562 4.757812 -1.328125 5.4375 -1.328125 C 6.925781 -1.328125 8.269531 -1.945312 9.46875 -3.1875 L 9.46875 -4.40625 C 8.957031 -4.570312 8.410156 -4.695312 7.828125 -4.78125 C 7.242188 -4.875 6.660156 -4.921875 6.078125 -4.921875 Z M 6.078125 -4.921875 "/></g></g></g><g fill="#000000" fill-opacity="1"><g transform="translate(514.233648, 417.204368)"><g/></g></g><g fill="#000000" fill-opacity="1"><g transform="translate(528.013253, 417.204368)"><g><path d="M 7.1875 -13.328125 C 7.476562 -13.328125 7.71875 -13.265625 7.90625 -13.140625 C 8.09375 -13.023438 8.226562 -12.84375 8.3125 -12.59375 L 12.28125 -1.53125 L 12.96875 -1.53125 C 13.21875 -1.53125 13.394531 -1.46875 13.5 -1.34375 C 13.613281 -1.226562 13.671875 -1.035156 13.671875 -0.765625 C 13.671875 -0.484375 13.613281 -0.285156 13.5 -0.171875 C 13.394531 -0.0546875 13.21875 0 12.96875 0 L 8.984375 0 C 8.734375 0 8.550781 -0.0546875 8.4375 -0.171875 C 8.332031 -0.285156 8.28125 -0.484375 8.28125 -0.765625 C 8.28125 -1.035156 8.332031 -1.226562 8.4375 -1.34375 C 8.550781 -1.46875 8.734375 -1.53125 8.984375 -1.53125 L 10.5 -1.53125 L 9.578125 -4.203125 L 4.140625 -4.203125 L 3.203125 -1.53125 L 4.5625 -1.53125 C 4.820312 -1.53125 5.003906 -1.46875 5.109375 -1.34375 C 5.222656 -1.226562 5.28125 -1.035156 5.28125 -0.765625 C 5.28125 -0.484375 5.222656 -0.285156 5.109375 -0.171875 C 5.003906 -0.0546875 4.820312 0 4.5625 0 L 0.8125 0 C 0.5625 0 0.378906 -0.0546875 0.265625 -0.171875 C 0.160156 -0.285156 0.109375 -0.484375 0.109375 -0.765625 C 0.109375 -1.035156 0.160156 -1.226562 0.265625 -1.34375 C 0.378906 -1.46875 0.5625 -1.53125 0.8125 -1.53125 L 1.453125 -1.53125 L 5.15625 -11.796875 L 3.0625 -11.796875 C 2.8125 -11.796875 2.628906 -11.851562 2.515625 -11.96875 C 2.410156 -12.082031 2.359375 -12.28125 2.359375 -12.5625 C 2.359375 -12.832031 2.410156 -13.023438 2.515625 -13.140625 C 2.628906 -13.265625 2.8125 -13.328125 3.0625 -13.328125 Z M 6.765625 -11.796875 L 4.671875 -5.71875 L 9.0625 -5.71875 L 6.984375 -11.796875 Z M 6.765625 -11.796875 "/></g></g></g><g fill="#000000" fill-opacity="1"><g transform="translate(541.792859, 417.204368)"><g><path d="M 8.15625 -10.609375 C 8.84375 -10.609375 9.4375 -10.460938 9.9375 -10.171875 C 10.4375 -9.878906 10.820312 -9.453125 11.09375 -8.890625 C 11.363281 -8.335938 11.5 -7.691406 11.5 -6.953125 L 11.5 -1.53125 L 12.40625 -1.53125 C 12.664062 -1.53125 12.847656 -1.46875 12.953125 -1.34375 C 13.066406 -1.226562 13.125 -1.035156 13.125 -0.765625 C 13.125 -0.484375 13.066406 -0.285156 12.953125 -0.171875 C 12.847656 -0.0546875 12.664062 0 12.40625 0 L 8.78125 0 C 8.519531 0 8.332031 -0.0546875 8.21875 -0.171875 C 8.113281 -0.285156 8.0625 -0.484375 8.0625 -0.765625 C 8.0625 -1.035156 8.113281 -1.226562 8.21875 -1.34375 C 8.332031 -1.46875 8.519531 -1.53125 8.78125 -1.53125 L 9.8125 -1.53125 L 9.8125 -6.796875 C 9.8125 -7.453125 9.65625 -7.972656 9.34375 -8.359375 C 9.039062 -8.753906 8.585938 -8.953125 7.984375 -8.953125 C 7.347656 -8.953125 6.753906 -8.769531 6.203125 -8.40625 C 5.660156 -8.039062 5.222656 -7.535156 4.890625 -6.890625 C 4.566406 -6.242188 4.40625 -5.523438 4.40625 -4.734375 L 4.40625 -1.53125 L 5.4375 -1.53125 C 5.6875 -1.53125 5.863281 -1.46875 5.96875 -1.34375 C 6.082031 -1.226562 6.140625 -1.035156 6.140625 -0.765625 C 6.140625 -0.484375 6.082031 -0.285156 5.96875 -0.171875 C 5.863281 -0.0546875 5.6875 0 5.4375 0 L 1.796875 0 C 1.546875 0 1.363281 -0.0546875 1.25 -0.171875 C 1.144531 -0.285156 1.09375 -0.484375 1.09375 -0.765625 C 1.09375 -1.035156 1.144531 -1.226562 1.25 -1.34375 C 1.363281 -1.46875 1.546875 -1.53125 1.796875 -1.53125 L 2.71875 -1.53125 L 2.71875 -8.84375 L 1.578125 -8.84375 C 1.316406 -8.84375 1.128906 -8.898438 1.015625 -9.015625 C 0.910156 -9.128906 0.859375 -9.328125 0.859375 -9.609375 C 0.859375 -9.878906 0.910156 -10.070312 1.015625 -10.1875 C 1.128906 -10.3125 1.316406 -10.375 1.578125 -10.375 L 3.578125 -10.375 C 3.835938 -10.375 4.019531 -10.3125 4.125 -10.1875 C 4.226562 -10.070312 4.28125 -9.878906 4.28125 -9.609375 L 4.28125 -8.265625 C 4.78125 -9.023438 5.359375 -9.601562 6.015625 -10 C 6.679688 -10.40625 7.394531 -10.609375 8.15625 -10.609375 Z M 8.15625 -10.609375 "/></g></g></g><g fill="#000000" fill-opacity="1"><g transform="translate(555.572465, 417.204368)"><g><path d="M 6.890625 -10.609375 C 7.910156 -10.609375 8.832031 -10.375 9.65625 -9.90625 C 10.476562 -9.445312 11.125 -8.804688 11.59375 -7.984375 C 12.0625 -7.160156 12.296875 -6.226562 12.296875 -5.1875 C 12.296875 -4.144531 12.0625 -3.207031 11.59375 -2.375 C 11.125 -1.550781 10.476562 -0.90625 9.65625 -0.4375 C 8.832031 0.0195312 7.910156 0.25 6.890625 0.25 C 5.867188 0.25 4.945312 0.0195312 4.125 -0.4375 C 3.300781 -0.90625 2.65625 -1.550781 2.1875 -2.375 C 1.71875 -3.207031 1.484375 -4.144531 1.484375 -5.1875 C 1.484375 -6.226562 1.71875 -7.160156 2.1875 -7.984375 C 2.65625 -8.804688 3.300781 -9.445312 4.125 -9.90625 C 4.945312 -10.375 5.867188 -10.609375 6.890625 -10.609375 Z M 6.890625 -8.953125 C 6.160156 -8.953125 5.519531 -8.789062 4.96875 -8.46875 C 4.425781 -8.15625 4.003906 -7.710938 3.703125 -7.140625 C 3.398438 -6.566406 3.25 -5.914062 3.25 -5.1875 C 3.25 -4.445312 3.398438 -3.789062 3.703125 -3.21875 C 4.003906 -2.65625 4.425781 -2.210938 4.96875 -1.890625 C 5.519531 -1.578125 6.160156 -1.421875 6.890625 -1.421875 C 7.617188 -1.421875 8.253906 -1.578125 8.796875 -1.890625 C 9.347656 -2.210938 9.773438 -2.65625 10.078125 -3.21875 C 10.378906 -3.789062 10.53125 -4.445312 10.53125 -5.1875 C 10.53125 -5.914062 10.378906 -6.566406 10.078125 -7.140625 C 9.773438 -7.710938 9.347656 -8.15625 8.796875 -8.46875 C 8.253906 -8.789062 7.617188 -8.953125 6.890625 -8.953125 Z M 6.890625 -8.953125 "/></g></g></g><g fill="#000000" fill-opacity="1"><g transform="translate(569.35207, 417.204368)"><g><path d="M 8.15625 -10.609375 C 8.84375 -10.609375 9.4375 -10.460938 9.9375 -10.171875 C 10.4375 -9.878906 10.820312 -9.453125 11.09375 -8.890625 C 11.363281 -8.335938 11.5 -7.691406 11.5 -6.953125 L 11.5 -1.53125 L 12.40625 -1.53125 C 12.664062 -1.53125 12.847656 -1.46875 12.953125 -1.34375 C 13.066406 -1.226562 13.125 -1.035156 13.125 -0.765625 C 13.125 -0.484375 13.066406 -0.285156 12.953125 -0.171875 C 12.847656 -0.0546875 12.664062 0 12.40625 0 L 8.78125 0 C 8.519531 0 8.332031 -0.0546875 8.21875 -0.171875 C 8.113281 -0.285156 8.0625 -0.484375 8.0625 -0.765625 C 8.0625 -1.035156 8.113281 -1.226562 8.21875 -1.34375 C 8.332031 -1.46875 8.519531 -1.53125 8.78125 -1.53125 L 9.8125 -1.53125 L 9.8125 -6.796875 C 9.8125 -7.453125 9.65625 -7.972656 9.34375 -8.359375 C 9.039062 -8.753906 8.585938 -8.953125 7.984375 -8.953125 C 7.347656 -8.953125 6.753906 -8.769531 6.203125 -8.40625 C 5.660156 -8.039062 5.222656 -7.535156 4.890625 -6.890625 C 4.566406 -6.242188 4.40625 -5.523438 4.40625 -4.734375 L 4.40625 -1.53125 L 5.4375 -1.53125 C 5.6875 -1.53125 5.863281 -1.46875 5.96875 -1.34375 C 6.082031 -1.226562 6.140625 -1.035156 6.140625 -0.765625 C 6.140625 -0.484375 6.082031 -0.285156 5.96875 -0.171875 C 5.863281 -0.0546875 5.6875 0 5.4375 0 L 1.796875 0 C 1.546875 0 1.363281 -0.0546875 1.25 -0.171875 C 1.144531 -0.285156 1.09375 -0.484375 1.09375 -0.765625 C 1.09375 -1.035156 1.144531 -1.226562 1.25 -1.34375 C 1.363281 -1.46875 1.546875 -1.53125 1.796875 -1.53125 L 2.71875 -1.53125 L 2.71875 -8.84375 L 1.578125 -8.84375 C 1.316406 -8.84375 1.128906 -8.898438 1.015625 -9.015625 C 0.910156 -9.128906 0.859375 -9.328125 0.859375 -9.609375 C 0.859375 -9.878906 0.910156 -10.070312 1.015625 -10.1875 C 1.128906 -10.3125 1.316406 -10.375 1.578125 -10.375 L 3.578125 -10.375 C 3.835938 -10.375 4.019531 -10.3125 4.125 -10.1875 C 4.226562 -10.070312 4.28125 -9.878906 4.28125 -9.609375 L 4.28125 -8.265625 C 4.78125 -9.023438 5.359375 -9.601562 6.015625 -10 C 6.679688 -10.40625 7.394531 -10.609375 8.15625 -10.609375 Z M 8.15625 -10.609375 "/></g></g></g><g fill="#000000" fill-opacity="1"><g transform="translate(583.131676, 417.204368)"><g><path d="M 12.515625 -10.375 C 12.765625 -10.375 12.941406 -10.3125 13.046875 -10.1875 C 13.160156 -10.070312 13.21875 -9.878906 13.21875 -9.609375 C 13.21875 -9.328125 13.160156 -9.128906 13.046875 -9.015625 C 12.941406 -8.898438 12.765625 -8.84375 12.515625 -8.84375 L 11.8125 -8.84375 L 7.234375 0.5625 C 6.742188 1.550781 6.265625 2.332031 5.796875 2.90625 C 5.335938 3.476562 4.816406 3.894531 4.234375 4.15625 C 3.648438 4.425781 2.945312 4.570312 2.125 4.59375 C 1.863281 4.601562 1.660156 4.539062 1.515625 4.40625 C 1.367188 4.269531 1.296875 4.023438 1.296875 3.671875 C 1.296875 3.179688 1.492188 2.925781 1.890625 2.90625 C 2.609375 2.863281 3.179688 2.742188 3.609375 2.546875 C 4.035156 2.347656 4.425781 2.003906 4.78125 1.515625 C 5.132812 1.023438 5.566406 0.257812 6.078125 -0.78125 L 1.96875 -8.84375 L 1.265625 -8.84375 C 1.015625 -8.84375 0.832031 -8.898438 0.71875 -9.015625 C 0.613281 -9.128906 0.5625 -9.328125 0.5625 -9.609375 C 0.5625 -9.878906 0.613281 -10.070312 0.71875 -10.1875 C 0.832031 -10.3125 1.015625 -10.375 1.265625 -10.375 L 5.234375 -10.375 C 5.492188 -10.375 5.675781 -10.3125 5.78125 -10.1875 C 5.894531 -10.070312 5.953125 -9.878906 5.953125 -9.609375 C 5.953125 -9.328125 5.894531 -9.128906 5.78125 -9.015625 C 5.675781 -8.898438 5.492188 -8.84375 5.234375 -8.84375 L 3.796875 -8.84375 L 6.96875 -2.53125 L 9.984375 -8.84375 L 8.984375 -8.84375 C 8.734375 -8.84375 8.550781 -8.898438 8.4375 -9.015625 C 8.332031 -9.128906 8.28125 -9.328125 8.28125 -9.609375 C 8.28125 -9.878906 8.332031 -10.070312 8.4375 -10.1875 C 8.550781 -10.3125 8.734375 -10.375 8.984375 -10.375 Z M 12.515625 -10.375 "/></g></g></g><g fill="#000000" fill-opacity="1"><g transform="translate(596.911282, 417.204368)"><g><path d="M 13.359375 -1.53125 C 13.617188 -1.53125 13.800781 -1.46875 13.90625 -1.34375 C 14.019531 -1.226562 14.078125 -1.035156 14.078125 -0.765625 C 14.078125 -0.484375 14.019531 -0.285156 13.90625 -0.171875 C 13.800781 -0.0546875 13.617188 0 13.359375 0 L 11.6875 0 C 11.4375 0 11.253906 -0.0546875 11.140625 -0.171875 C 11.035156 -0.285156 10.984375 -0.484375 10.984375 -0.765625 L 10.984375 -7.40625 C 10.984375 -7.925781 10.898438 -8.3125 10.734375 -8.5625 C 10.566406 -8.820312 10.296875 -8.953125 9.921875 -8.953125 C 9.566406 -8.953125 9.238281 -8.789062 8.9375 -8.46875 C 8.644531 -8.144531 8.410156 -7.691406 8.234375 -7.109375 C 8.054688 -6.523438 7.96875 -5.863281 7.96875 -5.125 L 7.96875 -1.53125 L 8.609375 -1.53125 C 8.859375 -1.53125 9.035156 -1.46875 9.140625 -1.34375 C 9.253906 -1.226562 9.3125 -1.035156 9.3125 -0.765625 C 9.3125 -0.484375 9.253906 -0.285156 9.140625 -0.171875 C 9.035156 -0.0546875 8.859375 0 8.609375 0 L 6.984375 0 C 6.734375 0 6.550781 -0.0546875 6.4375 -0.171875 C 6.332031 -0.285156 6.28125 -0.484375 6.28125 -0.765625 L 6.28125 -7.40625 C 6.28125 -7.925781 6.195312 -8.3125 6.03125 -8.5625 C 5.863281 -8.820312 5.59375 -8.953125 5.21875 -8.953125 C 4.863281 -8.953125 4.535156 -8.789062 4.234375 -8.46875 C 3.941406 -8.144531 3.707031 -7.691406 3.53125 -7.109375 C 3.351562 -6.523438 3.265625 -5.863281 3.265625 -5.125 L 3.265625 -1.53125 L 3.84375 -1.53125 C 4.101562 -1.53125 4.285156 -1.46875 4.390625 -1.34375 C 4.503906 -1.226562 4.5625 -1.035156 4.5625 -0.765625 C 4.5625 -0.484375 4.503906 -0.285156 4.390625 -0.171875 C 4.285156 -0.0546875 4.101562 0 3.84375 0 L 0.65625 0 C 0.40625 0 0.222656 -0.0546875 0.109375 -0.171875 C 0.00390625 -0.285156 -0.046875 -0.484375 -0.046875 -0.765625 C -0.046875 -1.035156 0.00390625 -1.226562 0.109375 -1.34375 C 0.222656 -1.46875 0.40625 -1.53125 0.65625 -1.53125 L 1.578125 -1.53125 L 1.578125 -8.84375 L 0.65625 -8.84375 C 0.40625 -8.84375 0.222656 -8.898438 0.109375 -9.015625 C 0.00390625 -9.128906 -0.046875 -9.328125 -0.046875 -9.609375 C -0.046875 -9.878906 0.00390625 -10.070312 0.109375 -10.1875 C 0.222656 -10.3125 0.40625 -10.375 0.65625 -10.375 L 2.328125 -10.375 C 2.585938 -10.375 2.769531 -10.3125 2.875 -10.1875 C 2.988281 -10.070312 3.046875 -9.878906 3.046875 -9.609375 L 3.046875 -8.5 C 3.367188 -9.195312 3.753906 -9.722656 4.203125 -10.078125 C 4.648438 -10.429688 5.132812 -10.609375 5.65625 -10.609375 C 6.164062 -10.609375 6.609375 -10.4375 6.984375 -10.09375 C 7.367188 -9.75 7.628906 -9.242188 7.765625 -8.578125 C 8.429688 -9.929688 9.289062 -10.609375 10.34375 -10.609375 C 10.789062 -10.609375 11.1875 -10.5 11.53125 -10.28125 C 11.875 -10.0625 12.148438 -9.722656 12.359375 -9.265625 C 12.566406 -8.816406 12.671875 -8.265625 12.671875 -7.609375 L 12.671875 -1.53125 Z M 13.359375 -1.53125 "/></g></g></g><g fill="#000000" fill-opacity="1"><g transform="translate(610.690887, 417.204368)"><g><path d="M 7.296875 -10.375 C 7.546875 -10.375 7.722656 -10.3125 7.828125 -10.1875 C 7.941406 -10.070312 8 -9.878906 8 -9.609375 L 8 -1.53125 L 11.609375 -1.53125 C 11.859375 -1.53125 12.035156 -1.46875 12.140625 -1.34375 C 12.253906 -1.226562 12.3125 -1.035156 12.3125 -0.765625 C 12.3125 -0.484375 12.253906 -0.285156 12.140625 -0.171875 C 12.035156 -0.0546875 11.859375 0 11.609375 0 L 2.8125 0 C 2.550781 0 2.363281 -0.0546875 2.25 -0.171875 C 2.144531 -0.285156 2.09375 -0.484375 2.09375 -0.765625 C 2.09375 -1.035156 2.144531 -1.226562 2.25 -1.34375 C 2.363281 -1.46875 2.550781 -1.53125 2.8125 -1.53125 L 6.3125 -1.53125 L 6.3125 -8.84375 L 3.484375 -8.84375 C 3.222656 -8.84375 3.035156 -8.898438 2.921875 -9.015625 C 2.816406 -9.128906 2.765625 -9.328125 2.765625 -9.609375 C 2.765625 -9.878906 2.816406 -10.070312 2.921875 -10.1875 C 3.035156 -10.3125 3.222656 -10.375 3.484375 -10.375 Z M 6.9375 -15.296875 C 7.351562 -15.296875 7.632812 -15.238281 7.78125 -15.125 C 7.925781 -15.019531 8 -14.832031 8 -14.5625 L 8 -13.109375 C 8 -12.835938 7.925781 -12.644531 7.78125 -12.53125 C 7.632812 -12.425781 7.351562 -12.375 6.9375 -12.375 C 6.53125 -12.375 6.25 -12.425781 6.09375 -12.53125 C 5.945312 -12.644531 5.875 -12.835938 5.875 -13.109375 L 5.875 -14.5625 C 5.875 -14.832031 5.945312 -15.019531 6.09375 -15.125 C 6.25 -15.238281 6.53125 -15.296875 6.9375 -15.296875 Z M 6.9375 -15.296875 "/></g></g></g><g fill="#000000" fill-opacity="1"><g transform="translate(624.470493, 417.204368)"><g><path d="M 10.96875 -10.375 C 11.21875 -10.375 11.394531 -10.3125 11.5 -10.1875 C 11.613281 -10.070312 11.671875 -9.878906 11.671875 -9.609375 C 11.671875 -9.390625 11.613281 -9.21875 11.5 -9.09375 L 4.65625 -1.53125 L 10.09375 -1.53125 L 10.09375 -3.453125 C 10.09375 -3.710938 10.15625 -3.898438 10.28125 -4.015625 C 10.414062 -4.128906 10.632812 -4.1875 10.9375 -4.1875 C 11.25 -4.1875 11.46875 -4.128906 11.59375 -4.015625 C 11.71875 -3.898438 11.78125 -3.710938 11.78125 -3.453125 L 11.78125 -0.765625 C 11.78125 -0.484375 11.722656 -0.285156 11.609375 -0.171875 C 11.503906 -0.0546875 11.328125 0 11.078125 0 L 2.703125 0 C 2.453125 0 2.269531 -0.0546875 2.15625 -0.171875 C 2.050781 -0.285156 2 -0.484375 2 -0.765625 C 2 -0.984375 2.050781 -1.148438 2.15625 -1.265625 L 9.015625 -8.84375 L 3.90625 -8.84375 L 3.90625 -7.171875 C 3.90625 -6.910156 3.84375 -6.722656 3.71875 -6.609375 C 3.59375 -6.492188 3.375 -6.4375 3.0625 -6.4375 C 2.757812 -6.4375 2.539062 -6.492188 2.40625 -6.609375 C 2.28125 -6.722656 2.21875 -6.910156 2.21875 -7.171875 L 2.21875 -9.609375 C 2.21875 -9.878906 2.269531 -10.070312 2.375 -10.1875 C 2.488281 -10.3125 2.671875 -10.375 2.921875 -10.375 Z M 10.96875 -10.375 "/></g></g></g><g fill="#000000" fill-opacity="1"><g transform="translate(638.250098, 417.204368)"><g><path d="M 6.9375 -10.609375 C 8.34375 -10.609375 9.394531 -10.296875 10.09375 -9.671875 C 10.800781 -9.046875 11.15625 -8.113281 11.15625 -6.875 L 11.15625 -2.40625 C 11.15625 -1.820312 11.398438 -1.53125 11.890625 -1.53125 L 12.28125 -1.53125 C 12.539062 -1.53125 12.722656 -1.46875 12.828125 -1.34375 C 12.941406 -1.226562 13 -1.035156 13 -0.765625 C 13 -0.484375 12.941406 -0.285156 12.828125 -0.171875 C 12.722656 -0.0546875 12.539062 0 12.28125 0 L 11.578125 0 C 11.085938 0 10.664062 -0.117188 10.3125 -0.359375 C 9.96875 -0.609375 9.742188 -0.96875 9.640625 -1.4375 C 9.023438 -0.894531 8.359375 -0.476562 7.640625 -0.1875 C 6.929688 0.101562 6.175781 0.25 5.375 0.25 C 4.625 0.25 3.957031 0.117188 3.375 -0.140625 C 2.789062 -0.398438 2.332031 -0.773438 2 -1.265625 C 1.675781 -1.765625 1.515625 -2.351562 1.515625 -3.03125 C 1.515625 -4.207031 1.9375 -5.078125 2.78125 -5.640625 C 3.625 -6.210938 4.71875 -6.5 6.0625 -6.5 C 7.25 -6.5 8.382812 -6.304688 9.46875 -5.921875 L 9.46875 -6.875 C 9.46875 -7.601562 9.265625 -8.132812 8.859375 -8.46875 C 8.453125 -8.8125 7.796875 -8.984375 6.890625 -8.984375 C 6.328125 -8.984375 5.742188 -8.90625 5.140625 -8.75 C 4.535156 -8.59375 3.957031 -8.378906 3.40625 -8.109375 C 3.28125 -8.035156 3.164062 -8 3.0625 -8 C 2.8125 -8 2.609375 -8.179688 2.453125 -8.546875 C 2.367188 -8.722656 2.328125 -8.867188 2.328125 -8.984375 C 2.328125 -9.242188 2.460938 -9.445312 2.734375 -9.59375 C 3.367188 -9.925781 4.046875 -10.175781 4.765625 -10.34375 C 5.484375 -10.519531 6.207031 -10.609375 6.9375 -10.609375 Z M 6.078125 -4.921875 C 5.210938 -4.921875 4.53125 -4.769531 4.03125 -4.46875 C 3.53125 -4.175781 3.28125 -3.707031 3.28125 -3.0625 C 3.28125 -2.519531 3.46875 -2.09375 3.84375 -1.78125 C 4.226562 -1.476562 4.757812 -1.328125 5.4375 -1.328125 C 6.925781 -1.328125 8.269531 -1.945312 9.46875 -3.1875 L 9.46875 -4.40625 C 8.957031 -4.570312 8.410156 -4.695312 7.828125 -4.78125 C 7.242188 -4.875 6.660156 -4.921875 6.078125 -4.921875 Z M 6.078125 -4.921875 "/></g></g></g><g fill="#000000" fill-opacity="1"><g transform="translate(652.029704, 417.204368)"><g><path d="M 5.140625 -13.5625 C 5.441406 -13.5625 5.65625 -13.503906 5.78125 -13.390625 C 5.914062 -13.285156 5.984375 -13.101562 5.984375 -12.84375 L 5.984375 -9.46875 L 10.59375 -9.46875 C 10.84375 -9.46875 11.019531 -9.410156 11.125 -9.296875 C 11.238281 -9.179688 11.296875 -8.984375 11.296875 -8.703125 C 11.296875 -8.429688 11.238281 -8.238281 11.125 -8.125 C 11.019531 -8.007812 10.84375 -7.953125 10.59375 -7.953125 L 5.984375 -7.953125 L 5.984375 -3.859375 C 5.984375 -3.003906 6.128906 -2.378906 6.421875 -1.984375 C 6.722656 -1.585938 7.238281 -1.390625 7.96875 -1.390625 C 8.46875 -1.390625 8.992188 -1.488281 9.546875 -1.6875 C 10.097656 -1.894531 10.632812 -2.164062 11.15625 -2.5 C 11.257812 -2.570312 11.375 -2.609375 11.5 -2.609375 C 11.757812 -2.609375 11.976562 -2.4375 12.15625 -2.09375 C 12.25 -1.90625 12.296875 -1.738281 12.296875 -1.59375 C 12.296875 -1.351562 12.175781 -1.160156 11.9375 -1.015625 C 11.34375 -0.640625 10.6875 -0.332031 9.96875 -0.09375 C 9.257812 0.132812 8.59375 0.25 7.96875 0.25 C 6.695312 0.25 5.765625 -0.078125 5.171875 -0.734375 C 4.585938 -1.398438 4.296875 -2.394531 4.296875 -3.71875 L 4.296875 -7.953125 L 2.015625 -7.953125 C 1.765625 -7.953125 1.582031 -8.007812 1.46875 -8.125 C 1.363281 -8.238281 1.3125 -8.429688 1.3125 -8.703125 C 1.3125 -8.984375 1.363281 -9.179688 1.46875 -9.296875 C 1.582031 -9.410156 1.765625 -9.46875 2.015625 -9.46875 L 4.296875 -9.46875 L 4.296875 -12.84375 C 4.296875 -13.101562 4.359375 -13.285156 4.484375 -13.390625 C 4.617188 -13.503906 4.835938 -13.5625 5.140625 -13.5625 Z M 5.140625 -13.5625 "/></g></g></g><g fill="#000000" fill-opacity="1"><g transform="translate(665.80931, 417.204368)"><g><path d="M 7.296875 -10.375 C 7.546875 -10.375 7.722656 -10.3125 7.828125 -10.1875 C 7.941406 -10.070312 8 -9.878906 8 -9.609375 L 8 -1.53125 L 11.609375 -1.53125 C 11.859375 -1.53125 12.035156 -1.46875 12.140625 -1.34375 C 12.253906 -1.226562 12.3125 -1.035156 12.3125 -0.765625 C 12.3125 -0.484375 12.253906 -0.285156 12.140625 -0.171875 C 12.035156 -0.0546875 11.859375 0 11.609375 0 L 2.8125 0 C 2.550781 0 2.363281 -0.0546875 2.25 -0.171875 C 2.144531 -0.285156 2.09375 -0.484375 2.09375 -0.765625 C 2.09375 -1.035156 2.144531 -1.226562 2.25 -1.34375 C 2.363281 -1.46875 2.550781 -1.53125 2.8125 -1.53125 L 6.3125 -1.53125 L 6.3125 -8.84375 L 3.484375 -8.84375 C 3.222656 -8.84375 3.035156 -8.898438 2.921875 -9.015625 C 2.816406 -9.128906 2.765625 -9.328125 2.765625 -9.609375 C 2.765625 -9.878906 2.816406 -10.070312 2.921875 -10.1875 C 3.035156 -10.3125 3.222656 -10.375 3.484375 -10.375 Z M 6.9375 -15.296875 C 7.351562 -15.296875 7.632812 -15.238281 7.78125 -15.125 C 7.925781 -15.019531 8 -14.832031 8 -14.5625 L 8 -13.109375 C 8 -12.835938 7.925781 -12.644531 7.78125 -12.53125 C 7.632812 -12.425781 7.351562 -12.375 6.9375 -12.375 C 6.53125 -12.375 6.25 -12.425781 6.09375 -12.53125 C 5.945312 -12.644531 5.875 -12.835938 5.875 -13.109375 L 5.875 -14.5625 C 5.875 -14.832031 5.945312 -15.019531 6.09375 -15.125 C 6.25 -15.238281 6.53125 -15.296875 6.9375 -15.296875 Z M 6.9375 -15.296875 "/></g></g></g><g fill="#000000" fill-opacity="1"><g transform="translate(679.588915, 417.204368)"><g><path d="M 6.890625 -10.609375 C 7.910156 -10.609375 8.832031 -10.375 9.65625 -9.90625 C 10.476562 -9.445312 11.125 -8.804688 11.59375 -7.984375 C 12.0625 -7.160156 12.296875 -6.226562 12.296875 -5.1875 C 12.296875 -4.144531 12.0625 -3.207031 11.59375 -2.375 C 11.125 -1.550781 10.476562 -0.90625 9.65625 -0.4375 C 8.832031 0.0195312 7.910156 0.25 6.890625 0.25 C 5.867188 0.25 4.945312 0.0195312 4.125 -0.4375 C 3.300781 -0.90625 2.65625 -1.550781 2.1875 -2.375 C 1.71875 -3.207031 1.484375 -4.144531 1.484375 -5.1875 C 1.484375 -6.226562 1.71875 -7.160156 2.1875 -7.984375 C 2.65625 -8.804688 3.300781 -9.445312 4.125 -9.90625 C 4.945312 -10.375 5.867188 -10.609375 6.890625 -10.609375 Z M 6.890625 -8.953125 C 6.160156 -8.953125 5.519531 -8.789062 4.96875 -8.46875 C 4.425781 -8.15625 4.003906 -7.710938 3.703125 -7.140625 C 3.398438 -6.566406 3.25 -5.914062 3.25 -5.1875 C 3.25 -4.445312 3.398438 -3.789062 3.703125 -3.21875 C 4.003906 -2.65625 4.425781 -2.210938 4.96875 -1.890625 C 5.519531 -1.578125 6.160156 -1.421875 6.890625 -1.421875 C 7.617188 -1.421875 8.253906 -1.578125 8.796875 -1.890625 C 9.347656 -2.210938 9.773438 -2.65625 10.078125 -3.21875 C 10.378906 -3.789062 10.53125 -4.445312 10.53125 -5.1875 C 10.53125 -5.914062 10.378906 -6.566406 10.078125 -7.140625 C 9.773438 -7.710938 9.347656 -8.15625 8.796875 -8.46875 C 8.253906 -8.789062 7.617188 -8.953125 6.890625 -8.953125 Z M 6.890625 -8.953125 "/></g></g></g><g fill="#000000" fill-opacity="1"><g transform="translate(693.368521, 417.204368)"><g><path d="M 8.15625 -10.609375 C 8.84375 -10.609375 9.4375 -10.460938 9.9375 -10.171875 C 10.4375 -9.878906 10.820312 -9.453125 11.09375 -8.890625 C 11.363281 -8.335938 11.5 -7.691406 11.5 -6.953125 L 11.5 -1.53125 L 12.40625 -1.53125 C 12.664062 -1.53125 12.847656 -1.46875 12.953125 -1.34375 C 13.066406 -1.226562 13.125 -1.035156 13.125 -0.765625 C 13.125 -0.484375 13.066406 -0.285156 12.953125 -0.171875 C 12.847656 -0.0546875 12.664062 0 12.40625 0 L 8.78125 0 C 8.519531 0 8.332031 -0.0546875 8.21875 -0.171875 C 8.113281 -0.285156 8.0625 -0.484375 8.0625 -0.765625 C 8.0625 -1.035156 8.113281 -1.226562 8.21875 -1.34375 C 8.332031 -1.46875 8.519531 -1.53125 8.78125 -1.53125 L 9.8125 -1.53125 L 9.8125 -6.796875 C 9.8125 -7.453125 9.65625 -7.972656 9.34375 -8.359375 C 9.039062 -8.753906 8.585938 -8.953125 7.984375 -8.953125 C 7.347656 -8.953125 6.753906 -8.769531 6.203125 -8.40625 C 5.660156 -8.039062 5.222656 -7.535156 4.890625 -6.890625 C 4.566406 -6.242188 4.40625 -5.523438 4.40625 -4.734375 L 4.40625 -1.53125 L 5.4375 -1.53125 C 5.6875 -1.53125 5.863281 -1.46875 5.96875 -1.34375 C 6.082031 -1.226562 6.140625 -1.035156 6.140625 -0.765625 C 6.140625 -0.484375 6.082031 -0.285156 5.96875 -0.171875 C 5.863281 -0.0546875 5.6875 0 5.4375 0 L 1.796875 0 C 1.546875 0 1.363281 -0.0546875 1.25 -0.171875 C 1.144531 -0.285156 1.09375 -0.484375 1.09375 -0.765625 C 1.09375 -1.035156 1.144531 -1.226562 1.25 -1.34375 C 1.363281 -1.46875 1.546875 -1.53125 1.796875 -1.53125 L 2.71875 -1.53125 L 2.71875 -8.84375 L 1.578125 -8.84375 C 1.316406 -8.84375 1.128906 -8.898438 1.015625 -9.015625 C 0.910156 -9.128906 0.859375 -9.328125 0.859375 -9.609375 C 0.859375 -9.878906 0.910156 -10.070312 1.015625 -10.1875 C 1.128906 -10.3125 1.316406 -10.375 1.578125 -10.375 L 3.578125 -10.375 C 3.835938 -10.375 4.019531 -10.3125 4.125 -10.1875 C 4.226562 -10.070312 4.28125 -9.878906 4.28125 -9.609375 L 4.28125 -8.265625 C 4.78125 -9.023438 5.359375 -9.601562 6.015625 -10 C 6.679688 -10.40625 7.394531 -10.609375 8.15625 -10.609375 Z M 8.15625 -10.609375 "/></g></g></g><g fill="#000000" fill-opacity="1"><g transform="translate(707.148127, 417.204368)"><g><path d="M 6.890625 -3.359375 C 7.429688 -3.359375 7.816406 -3.304688 8.046875 -3.203125 C 8.285156 -3.097656 8.40625 -2.914062 8.40625 -2.65625 L 8.40625 -0.59375 C 8.40625 -0.34375 8.285156 -0.160156 8.046875 -0.046875 C 7.816406 0.0546875 7.429688 0.109375 6.890625 0.109375 C 6.347656 0.109375 5.957031 0.0546875 5.71875 -0.046875 C 5.488281 -0.160156 5.375 -0.34375 5.375 -0.59375 L 5.375 -2.65625 C 5.375 -2.914062 5.488281 -3.097656 5.71875 -3.203125 C 5.957031 -3.304688 6.347656 -3.359375 6.890625 -3.359375 Z M 6.890625 -3.359375 "/></g></g></g><g fill="#000000" fill-opacity="1"><g transform="translate(574.218786, 81.036469)"><g/></g></g><g fill="#000000" fill-opacity="1"><g transform="translate(581.234893, 81.036469)"><g><path d="M 1.648438 -3.476562 C 1.078125 -1.46875 4.976562 0.539062 9.082031 0.539062 C 14.808594 0.539062 18.257812 -1.886719 18.257812 -5.816406 C 18.257812 -9.203125 15.320312 -11.09375 11.839844 -13.28125 C 9.144531 -14.957031 7.675781 -15.796875 7.675781 -17.777344 C 7.675781 -19.15625 8.84375 -20.207031 11.03125 -20.207031 C 14 -20.207031 15.5 -18.554688 15.199219 -14.179688 C 15.167969 -12.921875 16.308594 -13.160156 16.308594 -13.160156 L 17.808594 -18.015625 C 18.4375 -20.085938 14.300781 -21.492188 10.910156 -21.492188 C 5.695312 -21.492188 2.457031 -19.035156 2.457031 -15.859375 C 2.457031 -13.191406 5.246094 -11.300781 8.8125 -9.023438 C 11.300781 -7.496094 13.070312 -6.117188 13.070312 -4.046875 C 13.070312 -1.558594 10.972656 -0.78125 9.203125 -0.78125 C 5.546875 -0.78125 4.078125 -2.878906 4.347656 -7.765625 C 4.347656 -8.992188 3.359375 -8.84375 3.359375 -8.84375 Z M 1.648438 -3.476562 "/></g></g></g><g fill="#000000" fill-opacity="1"><g transform="translate(599.87832, 81.036469)"><g><path d="M 19.574219 -2.847656 C 19.484375 -2.609375 19.277344 -2.457031 19.007812 -2.457031 C 18.707031 -2.457031 18.464844 -2.699219 18.40625 -3.566406 L 17.835938 -10.011719 C 17.566406 -13.308594 15.289062 -14.507812 13.160156 -14.507812 C 10.191406 -14.507812 8.394531 -12.742188 7.765625 -10.792969 L 7.765625 -11.210938 C 7.765625 -15.558594 8.09375 -19.605469 8.273438 -21.132812 C 8.394531 -21.945312 7.464844 -21.882812 7.464844 -21.882812 C 6.027344 -20.683594 4.136719 -19.785156 1.46875 -19.515625 C 1.4375 -19.515625 1.019531 -18.40625 2.007812 -18.078125 C 2.546875 -17.957031 2.878906 -17.597656 2.878906 -15.050781 L 2.96875 -3.988281 C 2.96875 -2.097656 2.636719 -1.320312 1.679688 -1.230469 C 0.507812 -1.109375 0.71875 0.0898438 0.988281 0.0585938 C 3.898438 -0.03125 7.226562 -0.0585938 9.683594 0.0585938 C 10.011719 0.0898438 10.253906 -1.109375 9.082031 -1.199219 C 8.152344 -1.289062 7.765625 -2.128906 7.765625 -3.957031 L 7.765625 -6.265625 C 7.765625 -9.171875 8.933594 -11.601562 10.851562 -11.601562 C 11.871094 -11.601562 12.949219 -11.03125 13.101562 -9.144531 L 13.640625 -3.058594 C 13.878906 -0.328125 15.320312 0.480469 17.148438 0.480469 C 19.125 0.480469 20.414062 -0.71875 20.414062 -1.859375 C 20.414062 -2.878906 19.636719 -2.847656 19.574219 -2.847656 Z M 19.574219 -2.847656 "/></g></g></g><g fill="#000000" fill-opacity="1"><g transform="translate(619.810615, 81.036469)"><g><path d="M 4.828125 -16.1875 C 6.625 -16.1875 8.003906 -17.238281 8.003906 -18.644531 C 8.003906 -19.90625 6.894531 -20.925781 5.1875 -20.925781 C 3.386719 -20.925781 2.007812 -19.875 2.007812 -18.4375 C 2.007812 -17.175781 3.117188 -16.1875 4.828125 -16.1875 Z M 7.734375 -8.574219 C 7.734375 -10.492188 7.792969 -11.601562 8.003906 -14 C 8.035156 -14.417969 7.132812 -14.449219 7.042969 -14.390625 C 5.695312 -13.429688 4.046875 -12.859375 1.289062 -12.441406 C 1.230469 -12.441406 0.898438 -11.363281 1.707031 -11.0625 C 2.726562 -10.761719 2.9375 -10.011719 2.9375 -9.082031 L 2.9375 -3.988281 C 2.9375 -2.097656 2.609375 -1.320312 1.648438 -1.230469 C 0.480469 -1.109375 0.871094 0.0585938 0.960938 0.0585938 C 3.835938 -0.03125 7.195312 -0.0585938 9.652344 0.0585938 C 9.742188 0.0585938 10.191406 -1.109375 9.054688 -1.199219 C 8.125 -1.289062 7.734375 -2.128906 7.734375 -3.957031 Z M 7.734375 -8.574219 "/></g></g></g><g fill="#000000" fill-opacity="1"><g transform="translate(629.851587, 81.036469)"><g><path d="M 14.179688 -3.476562 C 13.101562 -2.609375 11.902344 -2.308594 10.941406 -2.367188 C 9.234375 -2.398438 7.613281 -3.296875 6.445312 -4.765625 C 12.082031 -4.886719 15.078125 -7.074219 15.078125 -10.042969 C 15.078125 -12.621094 12.53125 -14.449219 8.992188 -14.449219 C 3.867188 -14.449219 0.839844 -10.671875 0.839844 -6.714844 C 0.839844 -2.25 4.285156 0.507812 8.304688 0.507812 C 10.730469 0.507812 12.859375 -0.328125 14.148438 -1.617188 C 15.289062 -2.699219 14.539062 -3.71875 14.179688 -3.476562 Z M 7.226562 -12.859375 C 8.695312 -12.859375 10.28125 -10.792969 10.28125 -8.574219 C 10.28125 -6.714844 8.421875 -6.027344 5.636719 -5.964844 C 5.035156 -7.105469 4.675781 -8.421875 4.675781 -9.863281 C 4.675781 -11.632812 5.515625 -12.859375 7.226562 -12.859375 Z M 7.226562 -12.859375 "/></g></g></g><g fill="#000000" fill-opacity="1"><g transform="translate(644.988079, 81.036469)"><g><path d="M 2.90625 -3.988281 C 2.90625 -2.097656 2.546875 -1.320312 1.589844 -1.230469 C 0.417969 -1.109375 0.808594 0.0585938 0.898438 0.0585938 C 3.808594 -0.03125 7.132812 -0.0585938 9.621094 0.0585938 C 9.683594 0.0585938 10.164062 -1.109375 9.023438 -1.199219 C 8.0625 -1.289062 7.703125 -2.128906 7.703125 -3.957031 L 7.675781 -11.183594 C 7.703125 -15.558594 8.003906 -19.574219 8.214844 -21.105469 C 8.304688 -21.945312 7.375 -21.855469 7.375 -21.855469 C 5.9375 -20.65625 4.078125 -19.753906 1.410156 -19.515625 C 1.378906 -19.515625 0.929688 -18.375 1.917969 -18.046875 C 2.488281 -17.957031 2.816406 -17.597656 2.816406 -15.019531 Z M 2.90625 -3.988281 "/></g></g></g><g fill="#000000" fill-opacity="1"><g transform="translate(654.93913, 81.036469)"><g><path d="M 18.015625 -3.175781 C 17.867188 -2.9375 17.6875 -2.726562 17.355469 -2.726562 C 16.816406 -2.726562 16.636719 -3.117188 16.636719 -4.257812 L 16.609375 -11.210938 C 16.609375 -15.558594 16.90625 -19.605469 17.117188 -21.132812 C 17.238281 -21.945312 16.277344 -21.882812 16.277344 -21.882812 C 14.839844 -20.683594 12.980469 -19.785156 10.3125 -19.515625 C 10.28125 -19.515625 9.832031 -18.40625 10.820312 -18.078125 C 11.390625 -17.957031 11.722656 -17.597656 11.722656 -15.050781 L 11.722656 -13.191406 C 10.703125 -14.03125 9.503906 -14.449219 8.003906 -14.449219 C 4.015625 -14.449219 0.839844 -11.273438 0.839844 -6.535156 C 0.839844 -2.070312 3.71875 0.539062 6.746094 0.539062 C 9.261719 0.539062 10.550781 -1.109375 11.300781 -2.398438 C 11.542969 -2.816406 11.722656 -2.816406 11.839844 -2.667969 C 11.839844 -2.667969 11.839844 -2.636719 11.871094 -2.636719 C 12.140625 -0.480469 13.667969 0.480469 15.230469 0.480469 C 17.6875 0.480469 18.917969 -1.050781 18.917969 -2.277344 C 18.917969 -3.328125 18.105469 -3.296875 18.015625 -3.175781 Z M 9.414062 -2.609375 C 7.074219 -2.609375 4.976562 -6.773438 4.976562 -10.074219 C 4.976562 -11.992188 5.9375 -13.070312 7.613281 -13.070312 C 9.742188 -13.070312 11.542969 -10.132812 11.78125 -7.226562 L 11.78125 -5.664062 C 11.632812 -3.867188 10.582031 -2.609375 9.414062 -2.609375 Z M 9.414062 -2.609375 "/></g></g></g></svg>